<svg xmlns="http://www.w3.org/2000/svg" xmlns:xlink="http://www.w3.org/1999/xlink" xmlns:lucid="lucid" width="1562" height="1162"><g transform="translate(-39 -39)" lucid:page-tab-id="YGcM5DNywbTK"><path d="M0 0h2656v1760H0z" fill="#fff"/><g filter="url(#a)"><path d="M364 60c41.97 0 76 33.04 76 73.8s-34.03 73.8-76 73.8H136c-41.97 0-76-33.04-76-73.8S94.03 60 136 60z" stroke="#3d4752" stroke-width="4" fill="#fff"/><use xlink:href="#b" transform="matrix(1,0,0,1,65,65) translate(115.89388888888884 55.833333333333336)"/><use xlink:href="#c" transform="matrix(1,0,0,1,65,65) translate(21.634629629629536 91.03333333333333)"/><use xlink:href="#d" transform="matrix(1,0,0,1,65,65) translate(112.15314814814808 91.03333333333333)"/><use xlink:href="#e" transform="matrix(1,0,0,1,65,65) translate(181.41240740740736 91.03333333333333)"/></g><path d="M444 133.8h51.26" stroke="#494949" stroke-width="4" fill="none"/><path d="M444.05 135.8h-2.1l.05-2-.06-2h2.1z" fill="#494949"/><path d="M511.53 133.8l-14.27 4.64v-9.28z" stroke="#494949" stroke-width="4" fill="#494949"/><g filter="url(#f)"><path d="M520 73.8h180v120H520z" stroke="#3d4752" stroke-width="4" fill="#fff"/><use xlink:href="#g" transform="matrix(1,0,0,1,525,78.80000000000001) translate(6.92592592592591 59.145833333333336)"/></g><path d="M610 197.8v37.46" stroke="#494949" stroke-width="4" fill="none"/><path d="M612 197.85h-4v-2.05h4z" fill="#494949"/><path d="M610 251.53l-4.64-14.27h9.28z" stroke="#494949" stroke-width="4" fill="#494949"/><g filter="url(#h)"><path d="M530 260h160v120H530z" stroke="#3d4752" stroke-width="4" fill="#fff"/><use xlink:href="#i" transform="matrix(1,0,0,1,535,265) translate(2.4074074074073906 24.770833333333336)"/><use xlink:href="#j" transform="matrix(1,0,0,1,535,265) translate(29.074074074074062 24.770833333333336)"/><use xlink:href="#k" transform="matrix(1,0,0,1,535,265) translate(55.74074074074073 24.770833333333336)"/><use xlink:href="#l" transform="matrix(1,0,0,1,535,265) translate(82.4074074074074 24.770833333333336)"/><use xlink:href="#m" transform="matrix(1,0,0,1,535,265) translate(8.333333333333314 59.97083333333334)"/><use xlink:href="#n" transform="matrix(1,0,0,1,535,265) translate(34.999999999999986 59.97083333333334)"/><use xlink:href="#o" transform="matrix(1,0,0,1,535,265) translate(61.66666666666666 59.97083333333334)"/><use xlink:href="#p" transform="matrix(1,0,0,1,535,265) translate(88.33333333333333 59.97083333333334)"/><use xlink:href="#q" transform="matrix(1,0,0,1,535,265) translate(115 59.97083333333334)"/><use xlink:href="#r" transform="matrix(1,0,0,1,535,265) translate(34.99999999999999 95.17083333333335)"/><use xlink:href="#s" transform="matrix(1,0,0,1,535,265) translate(61.666666666666664 95.17083333333335)"/><use xlink:href="#t" transform="matrix(1,0,0,1,535,265) translate(88.33333333333334 95.17083333333335)"/></g><path d="M610 384v37.46" stroke="#494949" stroke-width="4" fill="none"/><path d="M612 384.05h-4V382h4z" fill="#494949"/><path d="M610 437.73l-4.64-14.27h9.28z" stroke="#494949" stroke-width="4" fill="#494949"/><g filter="url(#u)"><path d="M500 446.2h220v147.6H500z" stroke="#3d4752" stroke-width="4" fill="#fff"/><use xlink:href="#v" transform="matrix(1,0,0,1,505,451.2) translate(5 21.333333333333336)"/><use xlink:href="#w" transform="matrix(1,0,0,1,505,451.2) translate(31.66666666666667 21.333333333333336)"/><use xlink:href="#x" transform="matrix(1,0,0,1,505,451.2) translate(126.33333333333333 21.333333333333336)"/><use xlink:href="#y" transform="matrix(1,0,0,1,505,451.2) translate(153 21.333333333333336)"/><use xlink:href="#z" transform="matrix(1,0,0,1,505,451.2) translate(51.66666666666666 56.53333333333334)"/><use xlink:href="#A" transform="matrix(1,0,0,1,505,451.2) translate(78.33333333333333 56.53333333333334)"/><use xlink:href="#B" transform="matrix(1,0,0,1,505,451.2) translate(105 56.53333333333334)"/><use xlink:href="#C" transform="matrix(1,0,0,1,505,451.2) translate(131.66666666666669 56.53333333333334)"/><use xlink:href="#D" transform="matrix(1,0,0,1,505,451.2) translate(45.44444444444445 91.73333333333335)"/><use xlink:href="#E" transform="matrix(1,0,0,1,505,451.2) translate(23.592592592592567 126.93333333333334)"/></g><g filter="url(#F)"><path d="M880 73.8h340v120H880z" stroke="#3d4752" stroke-width="4" fill="#fff"/><use xlink:href="#G" transform="matrix(1,0,0,1,885,78.80000000004657) translate(80.3333333333333 59.145833333333336)"/></g><path d="M610 597.8v37.46" stroke="#494949" stroke-width="4" fill="none"/><path d="M612 597.85h-4v-2.05h4z" fill="#494949"/><path d="M610 651.53l-4.64-14.27h9.28z" stroke="#494949" stroke-width="4" fill="#494949"/><g filter="url(#h)"><path d="M530 660h160v120H530z" stroke="#3d4752" stroke-width="4" fill="#fff"/><use xlink:href="#H" transform="matrix(1,0,0,1,535,665) translate(8.333333333333314 41.958333333333336)"/><use xlink:href="#I" transform="matrix(1,0,0,1,535,665) translate(34.999999999999986 41.958333333333336)"/><use xlink:href="#J" transform="matrix(1,0,0,1,535,665) translate(61.66666666666666 41.958333333333336)"/><use xlink:href="#K" transform="matrix(1,0,0,1,535,665) translate(88.33333333333333 41.958333333333336)"/><use xlink:href="#L" transform="matrix(1,0,0,1,535,665) translate(115 41.958333333333336)"/><use xlink:href="#M" transform="matrix(1,0,0,1,535,665) translate(48.33333333333333 77.15833333333333)"/><use xlink:href="#N" transform="matrix(1,0,0,1,535,665) translate(75 77.15833333333333)"/></g><path d="M610 784v51.26" stroke="#494949" stroke-width="4" fill="none"/><path d="M612 784.05h-4V782h4z" fill="#494949"/><path d="M610 851.53l-4.64-14.27h9.28z" stroke="#494949" stroke-width="4" fill="#494949"/><g filter="url(#h)"><path d="M530 860h160v120H530z" stroke="#3d4752" stroke-width="4" fill="#fff"/><use xlink:href="#O" transform="matrix(1,0,0,1,535,865) translate(7.592592592592581 41.958333333333336)"/><use xlink:href="#P" transform="matrix(1,0,0,1,535,865) translate(34.25925925925925 41.958333333333336)"/><use xlink:href="#Q" transform="matrix(1,0,0,1,535,865) translate(115.74074074074075 41.958333333333336)"/><use xlink:href="#R" transform="matrix(1,0,0,1,535,865) translate(8.333333333333314 77.15833333333333)"/><use xlink:href="#S" transform="matrix(1,0,0,1,535,865) translate(34.999999999999986 77.15833333333333)"/><use xlink:href="#T" transform="matrix(1,0,0,1,535,865) translate(61.66666666666666 77.15833333333333)"/><use xlink:href="#U" transform="matrix(1,0,0,1,535,865) translate(88.33333333333333 77.15833333333333)"/><use xlink:href="#V" transform="matrix(1,0,0,1,535,865) translate(115 77.15833333333333)"/></g><path d="M526 920h-41.26" stroke="#494949" stroke-width="4" fill="none"/><path d="M528 922h-2.05v-4H528z" fill="#494949"/><path d="M468.47 920l14.27-4.64v9.28z" stroke="#494949" stroke-width="4" fill="#494949"/><g filter="url(#W)"><path d="M140 860h320v120H140z" stroke="#3d4752" stroke-width="4" fill="#fff"/><use xlink:href="#X" transform="matrix(1,0,0,1,145,865) translate(88.25925925925925 35.083333333333336)"/><use xlink:href="#Y" transform="matrix(1,0,0,1,145,865) translate(143.07407407407408 35.083333333333336)"/><use xlink:href="#Z" transform="matrix(1,0,0,1,145,865) translate(169.74074074074076 35.083333333333336)"/><use xlink:href="#aa" transform="matrix(1,0,0,1,145,865) translate(24.97995925925926 65.02114666666667)"/><use xlink:href="#ab" transform="matrix(1,0,0,1,145,865) translate(45.06889259259259 65.02114666666667)"/><use xlink:href="#ac" transform="matrix(1,0,0,1,145,865) translate(114.2641074074074 65.02114666666667)"/><use xlink:href="#ad" transform="matrix(1,0,0,1,145,865) translate(134.3530407407407 65.02114666666667)"/><use xlink:href="#ae" transform="matrix(1,0,0,1,145,865) translate(154.44197407407407 65.02114666666667)"/><use xlink:href="#af" transform="matrix(1,0,0,1,145,865) translate(174.5309074074074 65.02114666666667)"/><use xlink:href="#ag" transform="matrix(1,0,0,1,145,865) translate(264.93110740740735 65.02114666666667)"/><use xlink:href="#ah" transform="matrix(1,0,0,1,145,865) translate(102.04333962962963 91.53853866666667)"/></g><path d="M300 984v51.26" stroke="#494949" stroke-width="4" fill="none"/><path d="M302 984.05h-4V982h4z" fill="#494949"/><path d="M300 1051.53l-4.64-14.27h9.28z" stroke="#494949" stroke-width="4" fill="#494949"/><g filter="url(#W)"><path d="M140 1060h320v120H140z" stroke="#3d4752" stroke-width="4" fill="#fff"/><use xlink:href="#ai" transform="matrix(1,0,0,1,145,1065) translate(82.45662962962963 33.258646666666664)"/><use xlink:href="#aj" transform="matrix(1,0,0,1,145,1065) translate(168.28101703703703 33.258646666666664)"/><use xlink:href="#ak" transform="matrix(1,0,0,1,145,1065) translate(188.36995037037036 33.258646666666664)"/><use xlink:href="#al" transform="matrix(1,0,0,1,145,1065) translate(4.974729814814822 59.776038666666665)"/><use xlink:href="#am" transform="matrix(1,0,0,1,145,1065) translate(25.063663148148155 59.776038666666665)"/><use xlink:href="#an" transform="matrix(1,0,0,1,145,1065) translate(93.08702351851852 59.776038666666665)"/><use xlink:href="#ad" transform="matrix(1,0,0,1,145,1065) translate(113.17595685185185 59.776038666666665)"/><use xlink:href="#ae" transform="matrix(1,0,0,1,145,1065) translate(133.26489018518518 59.776038666666665)"/><use xlink:href="#ao" transform="matrix(1,0,0,1,145,1065) translate(153.3538235185185 59.776038666666665)"/><use xlink:href="#ap" transform="matrix(1,0,0,1,145,1065) translate(224.66953685185183 59.776038666666665)"/><use xlink:href="#aq" transform="matrix(1,0,0,1,145,1065) translate(244.75847018518516 59.776038666666665)"/><use xlink:href="#ar" transform="matrix(1,0,0,1,145,1065) translate(264.8474035185185 59.776038666666665)"/><use xlink:href="#as" transform="matrix(1,0,0,1,145,1065) translate(284.9363368518518 59.776038666666665)"/><use xlink:href="#at" transform="matrix(1,0,0,1,145,1065) translate(94.73320000000001 86.29343066666667)"/><use xlink:href="#au" transform="matrix(1,0,0,1,145,1065) translate(114.82213333333334 86.29343066666667)"/><use xlink:href="#av" transform="matrix(1,0,0,1,145,1065) translate(134.91106666666667 86.29343066666667)"/><use xlink:href="#aw" transform="matrix(1,0,0,1,145,1065) translate(155 86.29343066666667)"/><use xlink:href="#ax" transform="matrix(1,0,0,1,145,1065) translate(175.08893333333333 86.29343066666667)"/><use xlink:href="#ay" transform="matrix(1,0,0,1,145,1065) translate(195.17786666666666 86.29343066666667)"/></g><path d="M724 520h76V320h55.26" stroke="#494949" stroke-width="4" fill="none"/><path d="M724.05 522H722v-4h2.05z" fill="#494949"/><path d="M871.53 320l-14.27 4.64v-9.28z" stroke="#494949" stroke-width="4" fill="#494949"/><g filter="url(#az)"><path d="M880 246.2h340v147.6H880z" stroke="#3d4752" stroke-width="4" fill="#fff"/><use xlink:href="#aA" transform="matrix(1,0,0,1,885,251.2) translate(57.59259259259258 38.583333333333336)"/><use xlink:href="#Y" transform="matrix(1,0,0,1,885,251.2) translate(193.74074074074076 38.583333333333336)"/><use xlink:href="#Z" transform="matrix(1,0,0,1,885,251.2) translate(220.40740740740742 38.583333333333336)"/><use xlink:href="#aB" transform="matrix(1,0,0,1,885,251.2) translate(20.518518518518476 73.78333333333333)"/><use xlink:href="#aC" transform="matrix(1,0,0,1,885,251.2) translate(47.18518518518515 73.78333333333333)"/><use xlink:href="#aD" transform="matrix(1,0,0,1,885,251.2) translate(139.037037037037 73.78333333333333)"/><use xlink:href="#aE" transform="matrix(1,0,0,1,885,251.2) translate(229.48148148148147 73.78333333333333)"/><use xlink:href="#aF" transform="matrix(1,0,0,1,885,251.2) translate(256.14814814814815 73.78333333333333)"/><use xlink:href="#aG" transform="matrix(1,0,0,1,885,251.2) translate(282.81481481481484 73.78333333333333)"/><use xlink:href="#aH" transform="matrix(1,0,0,1,885,251.2) translate(68.77777777777777 108.98333333333335)"/><use xlink:href="#Y" transform="matrix(1,0,0,1,885,251.2) translate(207.88888888888889 108.98333333333335)"/><use xlink:href="#N" transform="matrix(1,0,0,1,885,251.2) translate(234.55555555555554 108.98333333333335)"/></g><path d="M1050 397.8v37.46" stroke="#494949" stroke-width="4" fill="none"/><path d="M1052 397.85h-4v-2.05h4z" fill="#494949"/><path d="M1050 451.53l-4.64-14.27h9.28z" stroke="#494949" stroke-width="4" fill="#494949"/><g filter="url(#F)"><path d="M880 460h340v120H880z" stroke="#3d4752" stroke-width="4" fill="#fff"/><use xlink:href="#aI" transform="matrix(1,0,0,1,885,465) translate(69.44444444444443 41.958333333333336)"/><use xlink:href="#Y" transform="matrix(1,0,0,1,885,465) translate(181.88888888888889 41.958333333333336)"/><use xlink:href="#aJ" transform="matrix(1,0,0,1,885,465) translate(208.55555555555557 41.958333333333336)"/><use xlink:href="#aK" transform="matrix(1,0,0,1,885,465) translate(5.851851851851848 77.15833333333333)"/><use xlink:href="#aL" transform="matrix(1,0,0,1,885,465) translate(32.51851851851852 77.15833333333333)"/><use xlink:href="#B" transform="matrix(1,0,0,1,885,465) translate(59.18518518518519 77.15833333333333)"/><use xlink:href="#aM" transform="matrix(1,0,0,1,885,465) translate(85.85185185185186 77.15833333333333)"/><use xlink:href="#aN" transform="matrix(1,0,0,1,885,465) translate(112.51851851851853 77.15833333333333)"/><use xlink:href="#aO" transform="matrix(1,0,0,1,885,465) translate(202.81481481481484 77.15833333333333)"/><use xlink:href="#aP" transform="matrix(1,0,0,1,885,465) translate(229.48148148148152 77.15833333333333)"/></g><path d="M1224 320h51.26" stroke="#494949" stroke-width="4" fill="none"/><path d="M1224.05 322H1222v-4h2.05z" fill="#494949"/><path d="M1291.53 320l-14.27 4.64v-9.28z" stroke="#494949" stroke-width="4" fill="#494949"/><g filter="url(#aQ)"><path d="M1300 260c46.48 19.92 75.88 19.92 93.24 19.92 28 0 65.24-19.92 93.24-19.92 17.64 0 46.76 0 93.52 19.92V380c-46.76-20.04-75.88-20.04-93.52-20.04-28 0-65.24 20.04-93.24 20.04-17.36 0-46.76 0-93.24-20.04z" stroke="#3d4752" stroke-width="4" fill="#fff"/><use xlink:href="#aR" transform="matrix(1,0,0,1,1305,265) translate(9.07407407407402 41.958333333333336)"/><use xlink:href="#aS" transform="matrix(1,0,0,1,1305,265) translate(74.25925925925921 41.958333333333336)"/><use xlink:href="#aT" transform="matrix(1,0,0,1,1305,265) translate(100.92592592592588 41.958333333333336)"/><use xlink:href="#aU" transform="matrix(1,0,0,1,1305,265) translate(127.59259259259255 41.958333333333336)"/><use xlink:href="#aV" transform="matrix(1,0,0,1,1305,265) translate(154.25925925925924 41.958333333333336)"/><use xlink:href="#aW" transform="matrix(1,0,0,1,1305,265) translate(180.92592592592592 41.958333333333336)"/><use xlink:href="#aX" transform="matrix(1,0,0,1,1305,265) translate(207.5925925925926 41.958333333333336)"/><use xlink:href="#aY" transform="matrix(1,0,0,1,1305,265) translate(234.2592592592593 41.958333333333336)"/><use xlink:href="#aZ" transform="matrix(1,0,0,1,1305,265) translate(75.77777777777777 77.15833333333333)"/><use xlink:href="#ba" transform="matrix(1,0,0,1,1305,265) translate(140.88888888888889 77.15833333333333)"/><use xlink:href="#bb" transform="matrix(1,0,0,1,1305,265) translate(167.55555555555554 77.15833333333333)"/></g><defs><path d="M166-85c3 67-44 102-111 85l1 64 29 4v9H6v-9l21-4v-217c-7-3-22 1-19-12h46l1 9c11-8 26-14 45-14 47 2 64 36 66 85zM56-13c53 14 83-14 78-72 7-53-33-79-78-60v132" id="bc"/><path d="M32-163c41-10 102-14 102 39v112c8 3 24-2 21 12h-45l-4-17C83 13 3 13 13-46c-2-50 45-50 92-51 4-36-5-70-42-56-6 2-12 4-16 6-4 7 0 23-15 20v-36zM42-47c0 41 41 33 63 22v-59c-34 1-63-1-63 37" id="bd"/><path d="M45-84c0 64 52 80 104 63 1 25-30 25-55 25-56 0-80-32-80-88 0-76 62-98 131-80v46h-10c-5-15-4-31-23-35-47-10-67 21-67 69" id="be"/><path d="M60-80l68-73c-7-3-20 0-17-12h58c3 13-13 9-20 12l-47 48 60 93c7 3 21-1 18 12h-68c-3-12 9-9 15-12L82-83 60-60v48c7 3 21-1 18 12H10v-8l21-4v-226l-24-4v-8h53v170" id="bf"/><path d="M141-152c28 39 5 97-54 97-9 0-20-2-27-3L49-35c29 22 130-14 124 52-4 45-38 57-88 61C21 83-8 26 45-2 33-6 22-15 21-31l28-31c-19-9-28-26-28-51-2-51 53-65 100-52l38-20 7 8zM85 64c35 0 61-11 61-42 0-35-57-17-89-21-9 8-16 19-17 34 0 25 19 29 45 29zM52-113c1 26 7 46 35 44 28-1 34-16 35-44 0-26-6-43-34-43s-36 17-36 43" id="bg"/><path d="M84-170c49 0 66 33 63 87H46c-8 60 38 80 95 63v10C128-2 108 4 88 4 34 4 14-29 14-84c-1-54 22-86 70-86zm33 73c12-57-57-82-69-24-1 7-2 15-2 24h71" id="bh"/><path d="M45-37c13 0 21 8 21 21C67-2 57 4 45 5 33 4 23-2 24-16c0-13 8-21 21-21" id="bi"/><path d="M50-238c28 0 22 38 0 38-10-2-19-7-19-19s7-18 19-19zM3 58c24 15 35-10 35-42v-169l-25-4v-8h54V7c4 51-28 81-77 66V38C3 36-1 51 3 58" id="bj"/><path d="M41-130c7 48 86 23 86 84 0 56-69 57-112 41v-40c20 0 9 29 31 31 35 19 77-26 41-50-27-18-72-13-72-59 0-50 58-52 100-41v36c-19 1-8-25-28-25-21-7-50-1-46 23" id="bk"/><path d="M90-170c52 0 76 32 76 87 0 54-24 87-77 87-51 0-75-34-75-87 0-54 24-87 76-87zM89-10c39 0 46-35 46-73 0-39-7-73-46-73-39 1-44 34-44 73s6 72 44 73" id="bl"/><path d="M125-118c4-37-41-34-68-26v132l23 4v8H8C5-13 21-9 28-12v-141c-7-3-23 1-20-12h47l2 13c31-23 98-29 98 31v109c7 3 23-1 20 12h-72v-8l22-4v-106" id="bm"/><g id="b"><use transform="matrix(0.07407407407407408,0,0,0.07407407407407408,0,0)" xlink:href="#bc"/><use transform="matrix(0.07407407407407408,0,0,0.07407407407407408,13.333333333333336,0)" xlink:href="#bd"/><use transform="matrix(0.07407407407407408,0,0,0.07407407407407408,25.111111111111114,0)" xlink:href="#be"/><use transform="matrix(0.07407407407407408,0,0,0.07407407407407408,36.88888888888889,0)" xlink:href="#bf"/><use transform="matrix(0.07407407407407408,0,0,0.07407407407407408,50.22222222222223,0)" xlink:href="#bd"/><use transform="matrix(0.07407407407407408,0,0,0.07407407407407408,62.00000000000001,0)" xlink:href="#bg"/><use transform="matrix(0.07407407407407408,0,0,0.07407407407407408,75.33333333333334,0)" xlink:href="#bh"/><use transform="matrix(0.07407407407407408,0,0,0.07407407407407408,87.11111111111113,0)" xlink:href="#bi"/><use transform="matrix(0.07407407407407408,0,0,0.07407407407407408,93.77777777777779,0)" xlink:href="#bj"/><use transform="matrix(0.07407407407407408,0,0,0.07407407407407408,101.1851851851852,0)" xlink:href="#bk"/><use transform="matrix(0.07407407407407408,0,0,0.07407407407407408,111.55555555555556,0)" xlink:href="#bl"/><use transform="matrix(0.07407407407407408,0,0,0.07407407407407408,124.88888888888889,0)" xlink:href="#bm"/></g><path d="M90-236h35l-11 85h-13zm-68 0h35l-11 85H33" id="bn"/><path d="M53-14c58 12 82-15 82-73 0-52-35-77-82-58v131zM89 4C64 4 42-2 24-9v-229l-24-4v-8h53l-1 94c48-33 114-4 114 69 0 57-23 91-77 91" id="bo"/><path d="M124-13C89 8 26 15 26-45v-108c-8-3-24 2-21-12h50v118c-3 37 42 32 69 25v-131l-25-4v-8h54v153c8 3 24-2 21 12h-48" id="bp"/><path d="M47-200c-23 0-25-39 0-38 13 0 18 7 20 19-1 11-8 19-20 19zM65-12l28 4v8H8v-8l28-4v-141l-24-4v-8h53v153" id="bq"/><path d="M65-12l28 4v8H7v-8l28-4v-226l-28-4v-8h58v238" id="br"/><path d="M13-81c0-71 46-101 114-85l-1-72-28-4v-8h57v238c8 3 24-2 21 12h-47l-2-12C80 23 13-1 13-81zm77-74c-37 1-44 33-45 74 0 38 9 66 45 66 14 0 27-3 36-7v-130c-10-1-24-3-36-3" id="bs"/><path d="M50-37c14 0 21 9 21 21S62 5 50 5C37 5 28-4 28-16s8-21 22-21zm0-132c12 0 21 9 21 21 0 13-9 22-21 22-13 0-22-9-22-22 0-12 9-21 22-21" id="bt"/><g id="c"><use transform="matrix(0.07407407407407408,0,0,0.07407407407407408,0,0)" xlink:href="#bn"/><use transform="matrix(0.07407407407407408,0,0,0.07407407407407408,10.814814814814817,0)" xlink:href="#bo"/><use transform="matrix(0.07407407407407408,0,0,0.07407407407407408,24.148148148148152,0)" xlink:href="#bp"/><use transform="matrix(0.07407407407407408,0,0,0.07407407407407408,37.48148148148149,0)" xlink:href="#bq"/><use transform="matrix(0.07407407407407408,0,0,0.07407407407407408,44.8888888888889,0)" xlink:href="#br"/><use transform="matrix(0.07407407407407408,0,0,0.07407407407407408,52.296296296296305,0)" xlink:href="#bs"/><use transform="matrix(0.07407407407407408,0,0,0.07407407407407408,65.62962962962965,0)" xlink:href="#bn"/><use transform="matrix(0.07407407407407408,0,0,0.07407407407407408,76.44444444444446,0)" xlink:href="#bt"/></g><g id="d"><use transform="matrix(0.07407407407407408,0,0,0.07407407407407408,0,0)" xlink:href="#bn"/><use transform="matrix(0.07407407407407408,0,0,0.07407407407407408,10.814814814814817,0)" xlink:href="#bm"/><use transform="matrix(0.07407407407407408,0,0,0.07407407407407408,24.148148148148152,0)" xlink:href="#bl"/><use transform="matrix(0.07407407407407408,0,0,0.07407407407407408,37.48148148148149,0)" xlink:href="#bs"/><use transform="matrix(0.07407407407407408,0,0,0.07407407407407408,50.814814814814824,0)" xlink:href="#bh"/></g><path d="M57-145c16-10 35-24 60-25v45c-19 1-8-30-40-17l-20 6v124l29 4v8H7v-8l21-4v-141c-8-3-24 2-21-12h48" id="bu"/><path d="M54-38c-1 25 24 26 44 20v12C71 10 25 9 25-35v-115H4c-2-14 14-10 21-15l18-38h11v38h38v15H54v112" id="bv"/><path d="M18 4H0l83-241h17" id="bw"/><g id="e"><use transform="matrix(0.07407407407407408,0,0,0.07407407407407408,0,0)" xlink:href="#bk"/><use transform="matrix(0.07407407407407408,0,0,0.07407407407407408,10.370370370370372,0)" xlink:href="#be"/><use transform="matrix(0.07407407407407408,0,0,0.07407407407407408,22.148148148148152,0)" xlink:href="#bu"/><use transform="matrix(0.07407407407407408,0,0,0.07407407407407408,30.962962962962965,0)" xlink:href="#bq"/><use transform="matrix(0.07407407407407408,0,0,0.07407407407407408,38.37037037037038,0)" xlink:href="#bc"/><use transform="matrix(0.07407407407407408,0,0,0.07407407407407408,51.70370370370372,0)" xlink:href="#bv"/><use transform="matrix(0.07407407407407408,0,0,0.07407407407407408,59.11111111111113,0)" xlink:href="#bk"/><use transform="matrix(0.07407407407407408,0,0,0.07407407407407408,69.4814814814815,0)" xlink:href="#bw"/><use transform="matrix(0.07407407407407408,0,0,0.07407407407407408,76.8888888888889,0)" xlink:href="#bo"/><use transform="matrix(0.07407407407407408,0,0,0.07407407407407408,90.22222222222223,0)" xlink:href="#bp"/><use transform="matrix(0.07407407407407408,0,0,0.07407407407407408,103.55555555555557,0)" xlink:href="#bq"/><use transform="matrix(0.07407407407407408,0,0,0.07407407407407408,110.96296296296298,0)" xlink:href="#br"/><use transform="matrix(0.07407407407407408,0,0,0.07407407407407408,118.37037037037038,0)" xlink:href="#bs"/><use transform="matrix(0.07407407407407408,0,0,0.07407407407407408,131.70370370370372,0)" xlink:href="#bi"/><use transform="matrix(0.07407407407407408,0,0,0.07407407407407408,138.37037037037038,0)" xlink:href="#bj"/><use transform="matrix(0.07407407407407408,0,0,0.07407407407407408,145.7777777777778,0)" xlink:href="#bk"/><use transform="matrix(0.07407407407407408,0,0,0.07407407407407408,156.14814814814818,0)" xlink:href="#bn"/></g><filter id="a" filterUnits="objectBoundingBox" x="-.03" y="-.03" width="1.05" height="1.14"><feOffset result="offOut" in="SourceAlpha" dy="6"/><feGaussianBlur result="blurOut" in="offOut" stdDeviation="5"/><feColorMatrix result="colorOut" in="blurOut" values="0 0 0 0 0 0 0 0 0 0 0 0 0 0 0 0 0 0 0.16862745098039217 0"/><feBlend in="SourceGraphic" in2="colorOut"/></filter><g id="g"><use transform="matrix(0.07407407407407408,0,0,0.07407407407407408,0,0)" xlink:href="#bk"/><use transform="matrix(0.07407407407407408,0,0,0.07407407407407408,10.370370370370372,0)" xlink:href="#be"/><use transform="matrix(0.07407407407407408,0,0,0.07407407407407408,22.148148148148152,0)" xlink:href="#bu"/><use transform="matrix(0.07407407407407408,0,0,0.07407407407407408,30.962962962962965,0)" xlink:href="#bq"/><use transform="matrix(0.07407407407407408,0,0,0.07407407407407408,38.37037037037038,0)" xlink:href="#bc"/><use transform="matrix(0.07407407407407408,0,0,0.07407407407407408,51.70370370370372,0)" xlink:href="#bv"/><use transform="matrix(0.07407407407407408,0,0,0.07407407407407408,59.11111111111113,0)" xlink:href="#bk"/><use transform="matrix(0.07407407407407408,0,0,0.07407407407407408,69.4814814814815,0)" xlink:href="#bw"/><use transform="matrix(0.07407407407407408,0,0,0.07407407407407408,76.8888888888889,0)" xlink:href="#bo"/><use transform="matrix(0.07407407407407408,0,0,0.07407407407407408,90.22222222222223,0)" xlink:href="#bp"/><use transform="matrix(0.07407407407407408,0,0,0.07407407407407408,103.55555555555557,0)" xlink:href="#bq"/><use transform="matrix(0.07407407407407408,0,0,0.07407407407407408,110.96296296296298,0)" xlink:href="#br"/><use transform="matrix(0.07407407407407408,0,0,0.07407407407407408,118.37037037037038,0)" xlink:href="#bs"/><use transform="matrix(0.07407407407407408,0,0,0.07407407407407408,131.70370370370372,0)" xlink:href="#bi"/><use transform="matrix(0.07407407407407408,0,0,0.07407407407407408,138.37037037037038,0)" xlink:href="#bj"/><use transform="matrix(0.07407407407407408,0,0,0.07407407407407408,145.7777777777778,0)" xlink:href="#bk"/></g><filter id="f" filterUnits="objectBoundingBox" x="-.06" y="-.03" width="1.11" height="1.17"><feOffset result="offOut" in="SourceAlpha" dy="6"/><feGaussianBlur result="blurOut" in="offOut" stdDeviation="5"/><feColorMatrix result="colorOut" in="blurOut" values="0 0 0 0 0 0 0 0 0 0 0 0 0 0 0 0 0 0 0.16862745098039217 0"/><feBlend in="SourceGraphic" in2="colorOut"/></filter><path d="M96-186c7-19 7-48 22-57-5-6-20-6-27-12-2 24-6 47-11 69H26c4 16 33 7 51 9-12 51-30 96-50 140 2 4 12 1 17 2 6-11 8-19 13-31 18 11 34 21 48 33C83 5 65 19 18 51l1 3c44-19 73-42 96-78 18 14 27 37 47 48 5-1 8-4 8-11 0-24-27-35-47-50 20-37 30-67 43-131 6-3 21-8 7-14-4-4-8-9-12-17l-14 13H96zM58-71c13-33 24-68 35-106h55c-8 63-17 94-37 133-15-9-33-18-53-27zm257-117c0-8 22-13 6-20-4-3-10-7-15-13l-11 11c-36-2-84 7-107-9 10 79 1 176 4 262 2 7 15-1 17-4V11h89c-4 16 5 30 17 15v-214zM209 2v-202h89V2h-89" id="bx"/><use transform="matrix(0.07407407407407408,0,0,0.07407407407407408,0,0)" xlink:href="#bx" id="i"/><path d="M183-174c0-7 11-13-1-15 8-14 9-14 17-29h121c11 0 10-8 2-12-10-5-17-11-22-18l-18 21H25l5 9h146C135-139 89-96 18-56l1 4c62-26 109-60 144-110V50c3 9 18-1 20-6v-218zm5 22l-1 3c40 30 67 55 82 76 10 14 17 21 22 21 16-5 7-23-4-35-11-11-43-34-99-65" id="by"/><use transform="matrix(0.07407407407407408,0,0,0.07407407407407408,0,0)" xlink:href="#by" id="j"/><path d="M99-129c11-26 30-42 43-72h174c11 0 10-8 2-12-9-4-16-11-21-17l-18 19H147c6-12 11-28 22-36-6-5-20-8-29-15-3 17-8 34-14 51H30l6 10h87c-8 18-17 36-28 53-8-1-13-3-18-4 2 5 4 14 4 25-16 22-36 43-59 65l3 3c19-14 37-31 56-52l1 165c6-3 15-3 17-10v-173zm133 24c21-7 31-27 58-31 11-1 13-8 5-13-6-4-12-11-18-21l-13 12H140l6 10h120c-14 17-28 31-42 42-6-1-11-3-18-5 3 10 3 30 3 46h-99l5 9h94v74c-2 12-32 6-44 6v4c17 4 24 13 30 25 13-2 32-16 32-35v-74h96c9 0 11-9 2-11-9-5-15-12-20-18l-17 20h-61c-1-17 0-32 8-38 0-1-1-2-3-2" id="bz"/><use transform="matrix(0.07407407407407408,0,0,0.07407407407407408,0,0)" xlink:href="#bz" id="k"/><path d="M99-105c23-28 30-40 52-86h170c12 1 13-9 3-11-10-6-17-13-23-20l-19 22H155c8-18 9-18 17-39 3-3 20-9 5-13-6-2-14-5-21-10-7 23-13 44-20 62H18l5 9h110C103-122 79-93 18-42l1 3c25-16 46-33 63-49V54c2 7 14-2 17-5v-154zm117 5c1-23-5-54 7-65-5-5-18-3-26-8 2 20 2 48 2 73h-82l5 10h77V28h-89l5 10h209c10 0 11-9 2-12-10-6-18-12-23-19l-17 21h-70V-90h92c9 1 11-9 2-11-9-5-17-11-22-18l-17 19h-55" id="bA"/><g id="l"><use transform="matrix(0.07407407407407408,0,0,0.07407407407407408,0,0)" xlink:href="#bA"/><use transform="matrix(0.07407407407407408,0,0,0.07407407407407408,26.66666666666667,0)" xlink:href="#bs"/><use transform="matrix(0.07407407407407408,0,0,0.07407407407407408,40.00000000000001,0)" xlink:href="#bq"/><use transform="matrix(0.07407407407407408,0,0,0.07407407407407408,47.40740740740742,0)" xlink:href="#bk"/><use transform="matrix(0.07407407407407408,0,0,0.07407407407407408,57.77777777777779,0)" xlink:href="#bv"/></g><path d="M183-191c1-19-4-45 6-54-3-7-18-4-26-9 5 17 2 42 3 63H25l5 10h75c15 71 28 108 60 148C138-6 76 32 19 49l3 4c62-18 112-41 152-75 28 32 64 57 106 73 10-8 24-12 39-12v-4c-59-12-99-36-132-69 27-30 48-73 72-147h64c8-1 6-10-2-12-6-4-12-10-20-19l-19 21h-99zm-73 10h129c-17 61-38 106-63 136-34-37-53-79-66-136" id="bB"/><use transform="matrix(0.07407407407407408,0,0,0.07407407407407408,0,0)" xlink:href="#bB" id="m"/><path d="M81-153c4-8 8-14-5-17 10-19 20-41 30-66 3-3 19-6 5-12-6-3-12-7-19-14-16 70-41 120-74 168l3 2c14-15 28-33 42-55V51c1 9 10 0 15 0 2-1 3-2 3-4v-200zm77-20c9-11 9-32 22-41 6-2 5-6-2-9-6-2-13-5-20-10-10 54-26 93-55 126l3 3c20-18 33-37 47-59h59v86H102l5 10h105l1 122c5-3 14-3 16-9V-67h98c10 0 10-7 2-11-9-4-16-12-21-18l-18 19h-61v-86h86c7 0 6-8 1-11-9-4-16-10-22-18l-18 19h-47c2-26-6-62 7-75-5-7-23-4-29-8 7 15 5 57 5 83h-54" id="bC"/><use transform="matrix(0.07407407407407408,0,0,0.07407407407407408,0,0)" xlink:href="#bC" id="n"/><path d="M27 50C108 12 136-7 180-82c23 64 66 105 122 132 9-8 19-12 30-12v-5C260 10 221-18 184-83h140c9 0 11-8 3-12-9-5-16-11-21-17l-16 19H185v-103h113c10 0 10-8 2-11-10-6-18-12-23-19l-18 20h-74c-1-18 0-37 7-46-4-7-21-4-29-9 3 15 5 34 5 55H52l6 10h110v103H22l5 10h132C120-11 97 10 25 47zm88-153c14-5 11-26-1-39-8-9-22-28-40-35 18 27 23 31 32 66 2 5 5 8 9 8zm144-77c-10 33-22 47-42 73 31-5 38-36 63-52 8-2 8-9-2-11-6-3-13-6-19-10" id="bD"/><use transform="matrix(0.07407407407407408,0,0,0.07407407407407408,0,0)" xlink:href="#bD" id="o"/><path d="M179-211c0-9 27-13 9-21-4-3-10-6-15-12l-11 11c-40-3-94 8-118-10 10 63 1 143 4 213 2 7 15-1 17-4v-190h97v194c2 7 14-2 17-4v-177zm-55 97c1-22-3-52 5-63l-26-8c3 2 4 26 4 71 0 95-20 128-77 165l2 3c63-27 92-71 92-168zm53 163c9-4 11-18 3-30-6-10-21-25-48-46l-2 1c19 20 32 44 40 70 2 3 4 5 7 5zm63-253c-1-9 13-15 0-18-8-1-14-2-19-4 8 60-1 148 4 213 5-3 12-3 15-8v-183zm70-33c0-7 15-14 1-14-6 0-13-2-20-5 8 84 1 186 3 276-4 11-31 5-41 2v4c18 4 25 15 31 27 12-1 26-15 26-33v-257" id="bE"/><use transform="matrix(0.07407407407407408,0,0,0.07407407407407408,0,0)" xlink:href="#bE" id="p"/><path d="M130-231c1-10 28-11 11-19-6-2-12-6-19-11-30 67-49 89-105 128l1 4c15-6 29-14 43-24L62 9c1 22 2 34 22 34h107c12 0 16-6 19-17-12-5-13-28-13-53h-3c-5 23 7 61-29 53H91c-12 0-13-6-13-17v-145h85v88c-1 22-31 7-46 7v3c21 6 31 13 38 25 11-4 25-12 25-31 0-33-9-83 11-97-4-8-14-9-21-18l-9 14c-33-2-79 7-97-10 26-19 45-44 64-72 29 20 50 37 61 52 8 11 14 16 18 16 5 0 9-4 9-12-14-30-32-30-86-60zm119 24c-2-9 11-15 0-18-8-2-15-2-20-4 8 59-1 144 4 208 5-3 13-4 16-9v-177zm67-32c-1-7 16-10 1-14-6 0-13-2-20-5 8 85 1 187 3 278-4 11-32 5-42 2v4c18 4 26 15 32 27 12-1 26-15 26-33v-259" id="bF"/><use transform="matrix(0.07407407407407408,0,0,0.07407407407407408,0,0)" xlink:href="#bF" id="q"/><path d="M286-199c-1-7 21-10 8-18-5-4-10-8-14-13-11 13-39 8-62 9-5-15 13-25 1-30-8-1-15-2-20-4 2 7 3 18 3 34h-59l5 10h54v33h-85l5 10h80v34h-59l5 10h54v34h-67l5 9h62v33h-82l5 10h77c1 17-2 38 1 53 5-3 14-2 15-8v-45h98c9 0 10-10 1-11-8-5-15-10-19-16l-16 17h-64v-33h74c9 1 11-8 3-9-7-4-12-9-16-14l-14 14h-47v-34h51c-3 11 5 11 14 7 8-10 1-35 3-51 14-2 56 7 42-11-8-4-14-9-18-14-8 5-9 17-24 15v-21zm-68-12h51v33h-51v-33zm0 43h51v34h-51v-34zM19 49C55 28 67 21 85-6c57 49 95 47 221 50 7-11 15-18 26-22v-4C243 28 133 31 90-15c20-33 25-60 35-107 1-5 16-7 7-12-5-3-10-8-14-15-9 9-27 9-45 8l36-74c5-6 20-8 9-16-4-2-9-5-14-10l-10 9H22l5 10h67L43-116c4 2 14 1 19 0l7-15h37c-6 47-11 74-26 104-11-13-22-32-32-55 4 27 17 50 27 64C61 6 47 21 18 46" id="bG"/><use transform="matrix(0.07407407407407408,0,0,0.07407407407407408,0,0)" xlink:href="#bG" id="r"/><path d="M297-138l-22 24H23l6 10h292c10-2 6-9-2-13-7-3-14-11-22-21" id="bH"/><use transform="matrix(0.07407407407407408,0,0,0.07407407407407408,0,0)" xlink:href="#bH" id="s"/><path d="M178-234c2-8 24-8 8-16-6-2-11-6-18-11-44 84-71 111-150 158l1 5c67-26 119-75 156-133 31 61 70 93 120 122 9-8 22-13 37-13l2-4c-68-18-121-57-156-108zm6 100c-2-10 15-15 1-20-9-1-17-3-22-5 9 63-3 148 5 213 5-3 13-3 16-8v-180" id="bI"/><use transform="matrix(0.07407407407407408,0,0,0.07407407407407408,0,0)" xlink:href="#bI" id="t"/><filter id="h" filterUnits="objectBoundingBox" x="-.06" y="-.03" width="1.13" height="1.17"><feOffset result="offOut" in="SourceAlpha" dy="6"/><feGaussianBlur result="blurOut" in="offOut" stdDeviation="5"/><feColorMatrix result="colorOut" in="blurOut" values="0 0 0 0 0 0 0 0 0 0 0 0 0 0 0 0 0 0 0.16862745098039217 0"/><feBlend in="SourceGraphic" in2="colorOut"/></filter><path d="M95 22c14 4 22 15 27 28 32-14 36-19 43-54 6-28 8-83 12-167 5-4 18-11 6-17-6-4-11-9-15-15l-15 15h-51c2-18-3-50 7-60-5-4-19-4-28-8 5 17 4 45 4 68H26l6 10h53C83-69 64-5 17 51l1 3C78-2 96-57 102-178h59c-4 103-10 165-20 189-14 20-15 13-45 7zm218-200c0-9 24-13 7-21-4-3-10-7-15-12l-11 11c-32-1-72 6-89-10 10 77 1 173 4 257 2 7 14-1 16-4V15h72c1 7-3 19 3 21 4-2 11-3 13-7v-207zM225 6v-197h72V6h-72" id="bJ"/><use transform="matrix(0.07407407407407408,0,0,0.07407407407407408,0,0)" xlink:href="#bJ" id="v"/><path d="M231-180c2-25-7-65 8-75-6-8-18-4-32-10 10 27 4 55 7 85h-88v-34h62c9 1 9-8 2-10-7-4-13-10-17-15l-15 15h-32c-6-18 14-27 2-34-6-1-14-2-21-5 4 8 3 26 3 39H47l5 10h58v34H19l6 10h189c3 55 13 98 28 139-20 27-49 50-84 70l1 2c36-14 66-33 89-58 16 32 34 66 67 74 19-1 7-16 5-26 0-4 2-21 6-50h-5c-12 20-15 72-40 30-7-12-16-25-23-41 17-22 34-50 50-85 3-3 17-7 3-11-6-2-12-6-19-11-10 35-23 65-40 91-12-34-20-75-20-124h92c9 1 11-8 3-11-9-5-16-12-21-18l-16 19h-59zM126-57c1-17-3-40 6-48-2-7-20-5-23-9l1 57H60c10-19 19-41 28-64h109c7 1 9-9 1-10-8-5-14-11-19-17l-17 18H92c3-11 8-20 15-28l-22-9c-4 13-8 25-12 37H25c3 15 29 7 45 9-11 31-23 55-36 79 4 4 20 15 21-1 9-11 37-3 55-5v40C83-2 52 4 27 5c6 5 10 21 17 27 8-15 43-18 66-26 1 16-2 35 1 49 5-3 13-2 15-8V0c18-6 37-14 59-23l-2-3-57 14v-36h59c9-1 7-9 0-12-6-3-13-7-20-15-10 9-16 22-39 18zm128-182c23 13 29 28 43 39 10-1 10-18 1-24-8-5-20-12-42-19" id="bK"/><path d="M103-236c-39-15-35 32-34 71h44v15H69v136l35 6v8H15v-8l25-6v-136H11v-9l29-7c-6-59 23-100 80-84v36c-15 2-12-14-17-22" id="bL"/><g id="w"><use transform="matrix(0.07407407407407408,0,0,0.07407407407407408,0,0)" xlink:href="#bK"/><use transform="matrix(0.07407407407407408,0,0,0.07407407407407408,26.66666666666667,0)" xlink:href="#be"/><use transform="matrix(0.07407407407407408,0,0,0.07407407407407408,38.44444444444445,0)" xlink:href="#bl"/><use transform="matrix(0.07407407407407408,0,0,0.07407407407407408,51.777777777777786,0)" xlink:href="#bm"/><use transform="matrix(0.07407407407407408,0,0,0.07407407407407408,65.11111111111111,0)" xlink:href="#bL"/><use transform="matrix(0.07407407407407408,0,0,0.07407407407407408,73.92592592592592,0)" xlink:href="#bq"/><use transform="matrix(0.07407407407407408,0,0,0.07407407407407408,81.33333333333333,0)" xlink:href="#bg"/></g><path d="M81-151c3-5 7-12-1-14 13-19 26-41 40-68 4-5 17-7 4-13-6-3-13-8-20-15-18 66-48 113-86 157l3 3c15-12 29-27 44-44l2 199c5-2 14-2 14-8v-197zm140-48c-1-20 0-38 7-48-6-5-20-4-29-9 7 13 3 38 4 57h-94l5 10h76C164-121 135-81 88-44l1 5c26-15 48-33 67-55V13c-17 6-31 10-44 12 6 3 14 39 21 22 30-23 63-34 110-70l-3-3c-26 14-48 25-67 33v-123c13-19 26-43 38-73h4c15 102 38 169 88 230 9-8 20-12 31-12v-4c-33-20-60-58-79-101 26-12 44-37 71-51-6-6-14-10-21-18-14 26-32 48-52 64-11-26-22-62-33-108h99c10 0 11-9 2-11-9-5-15-12-20-18l-17 19h-63" id="bM"/><use transform="matrix(0.07407407407407408,0,0,0.07407407407407408,0,0)" xlink:href="#bM" id="x"/><path d="M156-141c1-7 19-14 4-21-4-3-9-6-14-12-6 12-24 12-43 11v-33h63c9 1 9-7 2-11-8-4-14-9-18-15l-15 16h-32c1-16-3-39 6-46-3-7-20-5-25-9 3 9 2 38 2 55H19l6 10h61v33c-23 1-45 0-57-10 8 27 2 65 4 98 3 5 20 1 17-11h29C61-34 50-29 19 18 50-7 68-25 86-61c2 37-4 82 2 115 5-3 14-2 15-8V-65c15 15 18 18 27 41 2 5 6 8 10 8 6-1 9-6 8-15-5-17-25-27-45-39v-16h37c-2 11 7 7 13 4 8-13 1-40 3-59zM50-96v-57h36v57H50zm53-57h37v57h-37v-57zm124-66c4-13 11-23 22-28-6-6-17-8-25-15-16 55-24 74-56 109l1 4c4-3 9-6 13-9l3 150c4-2 13-2 14-7v-137h101c2 46-4 99 2 141 5-2 13-2 14-7v-123c-1-8 23-13 6-21-5-3-9-6-14-12l-11 12h-47c16-9 29-30 49-40s-13-15-15-28c-8 15-35 11-57 11zm-37 54c13-12 23-29 32-45h51c-8 17-17 33-28 48-18-1-41 3-55-3zm66 95c0-17-2-37 5-46-5-5-18-4-26-8 19 95-19 158-89 177l2 2c72-21 104-44 108-125zm8 61l-3 3c22 17 39 30 46 43 9 16 21 17 21-4-10-21-24-21-64-42" id="bN"/><path d="M166-31c30 0 29 45 15 64-7 9-15 16-28 21l-5-6c20-10 31-23 27-42-14 5-31 0-31-17 0-12 10-20 22-20" id="bO"/><g id="y"><use transform="matrix(0.07407407407407408,0,0,0.07407407407407408,0,0)" xlink:href="#bN"/><use transform="matrix(0.07407407407407408,0,0,0.07407407407407408,26.66666666666667,0)" xlink:href="#bO"/></g><path d="M151-256c18 14 23 31 33 44 11 0 14-21 4-28-5-6-16-14-34-21zM33-156c16-3 16-20 19-43h240c-7 16-13 30-19 39 17 3 21-31 46-31 10-1 10-10 3-14s-13-9-19-16l-13 13H52v-16h-4c6 23-42 55-15 68zm64-11c24 14 32 29 44 44 11 0 13-20 3-27-8-5-22-13-44-21zm-19 46c26 15 34 30 48 44 12 0 13-19 3-26-9-6-24-13-48-21zM34 54C105 37 159 9 187-51c20 51 58 78 103 97 9-9 21-14 37-14l1-3C262 16 221-5 193-53h117c12 0 13-9 3-12-10-6-17-13-23-20l-19 22h-80c10-21 2-87 14-108-6-4-20-4-29-9 9 11 4 101-4 117H33l5 10h130C137 9 107 23 33 51" id="bP"/><use transform="matrix(0.07407407407407408,0,0,0.07407407407407408,0,0)" xlink:href="#bP" id="z"/><path d="M126-89c-2-33-12-45-35-67 16-27 26-49 34-66 3-6 27-10 10-16-4-3-9-9-15-16-14 18-69 14-90 2 11 92 1 204 4 303 2 7 15-1 17-4v-280h58c-8 29-18 54-27 77 17 22 27 36 27 67 0 26-19 33-46 21v4c14 6 24 15 29 29 21-11 35-20 34-54zm143-162l-18 19h-95l6 10h126c11 1 12-9 3-11-9-5-17-11-22-18zM209 54c10-3 23-16 23-32v-175h94c10 0 10-9 1-12-10-6-17-12-22-19l-18 21H122l6 10h88V20c-2 15-33 7-47 6v5c23 4 33 12 40 23zm-41-168c-15 52-47 89-73 124 35-25 62-56 86-99 4-3 18-7 4-12-5-2-11-7-17-13zM323-5c7 0 11-8 9-18-6-40-36-61-71-91l-2 2c31 39 37 45 53 97 2 6 6 10 11 10" id="bQ"/><use transform="matrix(0.07407407407407408,0,0,0.07407407407407408,0,0)" xlink:href="#bQ" id="A"/><path d="M264-222c0-8 22-14 3-21-4-3-10-7-16-13l-13 12H101l-21-11c11 38-2 96 6 137l16-6v-13h144c-4 17 12 12 18 6v-91zm-162 75v-39h144v39H102zm0-49v-38h144v38H102zM96-89C87-18 68 15 27 51l2 3c34-20 59-45 74-87 33 76 84 80 203 82 7-12 17-20 28-24v-4c-41 7-110 6-145 1v-55h99c8 1 8-8 2-11-9-4-16-10-22-18l-18 20h-61v-55h135c10 0 11-9 2-12-10-6-18-11-23-18l-17 20H18l5 10h149V18c-34-13-47-23-67-57 6-10 2-26 14-30 6-3 7-6-1-9-7-2-14-6-22-11" id="bR"/><use transform="matrix(0.07407407407407408,0,0,0.07407407407407408,0,0)" xlink:href="#bR" id="B"/><path d="M78-191c14-2 13-22 0-30-8-5-22-19-38-22 18 17 19 21 29 44 2 5 5 8 9 8zm11 61c1-9 17-11 6-18-4-2-8-6-13-11-9 16-40 9-63 10 5 16 35 7 54 9v121c0 7-5 11-13 15 6 7 11 13 14 19 18-12 35-27 50-46l-2-3c-11 8-22 14-33 18v-114zm228-84c0-7 18-13 8-19-5-3-10-8-15-14l-12 10H158l-22-13c3 19 4 59 4 121-1 105-7 126-45 183l2 1c49-54 58-75 59-184v-98h145V13c1 23-30 8-47 12v4c21 5 32 11 41 21 8-2 22-15 22-30v-234zm-84 37c-2-16 4-24 7-33l-26-8c4 9 3 27 3 41h-49l5 10h44v43h-54l6 9h119c7 0 9-9 1-10-7-4-12-8-16-13l-12 14h-28v-43h50c13-7-11-14-12-21-6 10-20 13-38 11zm39 120c0-8 19-14 4-21-4-3-10-6-15-12-15 16-68 12-88 0 10 24-3 69 7 95 8-2 17-5 14-18h62c-3 12 5 12 13 7 8-11 3-35 3-51zm-78 34v-48h62v48h-62" id="bS"/><use transform="matrix(0.07407407407407408,0,0,0.07407407407407408,0,0)" xlink:href="#bS" id="C"/><path d="M298-210c0-7 18-13 8-19-5-3-10-8-15-14l-12 11H81l-23-13c4 15 5 45 5 93C62-38 58-14 21 50l2 1C54 11 69-12 77-67h89V49c3 5 16-1 17-6V-67h99v80c-1 25-24 9-46 9v4c15 6 25 15 30 28 10-2 36-17 32-33v-231zM78-77c2-18 3-39 3-65h85v65H78zm105-65h99v65h-99v-65zM81-152v-70h85v70H81zm102-70h99v70h-99v-70" id="bT"/><g id="D"><use transform="matrix(0.07407407407407408,0,0,0.07407407407407408,0,0)" xlink:href="#bT"/><use transform="matrix(0.07407407407407408,0,0,0.07407407407407408,26.66666666666667,0)" xlink:href="#be"/><use transform="matrix(0.07407407407407408,0,0,0.07407407407407408,38.44444444444445,0)" xlink:href="#bl"/><use transform="matrix(0.07407407407407408,0,0,0.07407407407407408,51.777777777777786,0)" xlink:href="#bm"/><use transform="matrix(0.07407407407407408,0,0,0.07407407407407408,65.11111111111111,0)" xlink:href="#bL"/><use transform="matrix(0.07407407407407408,0,0,0.07407407407407408,73.92592592592592,0)" xlink:href="#bq"/><use transform="matrix(0.07407407407407408,0,0,0.07407407407407408,81.33333333333333,0)" xlink:href="#bg"/><use transform="matrix(0.07407407407407408,0,0,0.07407407407407408,94.66666666666666,0)" xlink:href="#bi"/><use transform="matrix(0.07407407407407408,0,0,0.07407407407407408,101.33333333333333,0)" xlink:href="#bj"/><use transform="matrix(0.07407407407407408,0,0,0.07407407407407408,108.74074074074073,0)" xlink:href="#bk"/></g><path d="M77-191c19-20 23-42 41-56-7-6-18-7-26-15-2 25-9 49-19 71-19 2-32-3-43-9 10 71 1 160 4 238 3 5 15-2 17-5V7h75c-4 16 6 30 17 15v-131c18-17 37-45 51-72h112c-3 76-5 133-11 170-4 24-5 39-23 39s-32-1-40-4v4c20 4 31 14 40 26 32-7 35-29 40-68 5-37 6-88 9-154 1-7 22-13 8-19-5-3-9-7-13-14l-13 10H199c9-17 13-44 29-56-6-5-18-8-26-14-8 58-30 103-59 145 1-25-6-60 11-66-3-9-15-10-21-19-8 14-35 9-56 10zM51-2v-90h75v90H51zm0-99v-80h75v80H51zm181 45c15-4 12-25 0-36-8-6-22-24-38-29 16 23 20 27 29 57 2 5 5 8 9 8" id="bU"/><path d="M81-9v9H4v-9l26-5 81-224h33l83 224 30 5v9h-99v-9l31-5-23-68H73L49-14zm38-203L78-98h82" id="bV"/><path d="M75-131c50 2 93 3 93-48 0-46-48-41-93-41v89zm0 115c55 4 111 6 111-51 0-53-58-48-111-48v99zm148-52C223 24 102-3 10 0v-9l31-5v-208l-31-4v-10c77 6 193-24 194 56 0 33-20 48-48 54 36 5 67 20 67 58" id="bW"/><g id="E"><use transform="matrix(0.07407407407407408,0,0,0.07407407407407408,0,0)" xlink:href="#bU"/><use transform="matrix(0.07407407407407408,0,0,0.07407407407407408,26.66666666666667,0)" xlink:href="#bg"/><use transform="matrix(0.07407407407407408,0,0,0.07407407407407408,40.00000000000001,0)" xlink:href="#bh"/><use transform="matrix(0.07407407407407408,0,0,0.07407407407407408,51.777777777777786,0)" xlink:href="#bv"/><use transform="matrix(0.07407407407407408,0,0,0.07407407407407408,59.18518518518519,0)" xlink:href="#bV"/><use transform="matrix(0.07407407407407408,0,0,0.07407407407407408,78.37037037037038,0)" xlink:href="#br"/><use transform="matrix(0.07407407407407408,0,0,0.07407407407407408,85.77777777777779,0)" xlink:href="#br"/><use transform="matrix(0.07407407407407408,0,0,0.07407407407407408,93.18518518518519,0)" xlink:href="#bW"/><use transform="matrix(0.07407407407407408,0,0,0.07407407407407408,110.96296296296296,0)" xlink:href="#bp"/><use transform="matrix(0.07407407407407408,0,0,0.07407407407407408,124.29629629629632,0)" xlink:href="#bq"/><use transform="matrix(0.07407407407407408,0,0,0.07407407407407408,131.70370370370372,0)" xlink:href="#br"/><use transform="matrix(0.07407407407407408,0,0,0.07407407407407408,139.11111111111114,0)" xlink:href="#bs"/><use transform="matrix(0.07407407407407408,0,0,0.07407407407407408,152.44444444444449,0)" xlink:href="#bk"/></g><filter id="u" filterUnits="objectBoundingBox" x="-.05" y="-.03" width="1.09" height="1.14"><feOffset result="offOut" in="SourceAlpha" dy="6"/><feGaussianBlur result="blurOut" in="offOut" stdDeviation="5"/><feColorMatrix result="colorOut" in="blurOut" values="0 0 0 0 0 0 0 0 0 0 0 0 0 0 0 0 0 0 0.16862745098039217 0"/><feBlend in="SourceGraphic" in2="colorOut"/></filter><g id="G"><use transform="matrix(0.07407407407407408,0,0,0.07407407407407408,0,0)" xlink:href="#bk"/><use transform="matrix(0.07407407407407408,0,0,0.07407407407407408,10.370370370370372,0)" xlink:href="#be"/><use transform="matrix(0.07407407407407408,0,0,0.07407407407407408,22.148148148148152,0)" xlink:href="#bu"/><use transform="matrix(0.07407407407407408,0,0,0.07407407407407408,30.962962962962965,0)" xlink:href="#bq"/><use transform="matrix(0.07407407407407408,0,0,0.07407407407407408,38.37037037037038,0)" xlink:href="#bc"/><use transform="matrix(0.07407407407407408,0,0,0.07407407407407408,51.70370370370372,0)" xlink:href="#bv"/><use transform="matrix(0.07407407407407408,0,0,0.07407407407407408,59.11111111111113,0)" xlink:href="#bk"/><use transform="matrix(0.07407407407407408,0,0,0.07407407407407408,69.4814814814815,0)" xlink:href="#bw"/><use transform="matrix(0.07407407407407408,0,0,0.07407407407407408,76.8888888888889,0)" xlink:href="#be"/><use transform="matrix(0.07407407407407408,0,0,0.07407407407407408,88.66666666666667,0)" xlink:href="#bl"/><use transform="matrix(0.07407407407407408,0,0,0.07407407407407408,102.00000000000003,0)" xlink:href="#bm"/><use transform="matrix(0.07407407407407408,0,0,0.07407407407407408,115.33333333333337,0)" xlink:href="#bL"/><use transform="matrix(0.07407407407407408,0,0,0.07407407407407408,124.14814814814818,0)" xlink:href="#bq"/><use transform="matrix(0.07407407407407408,0,0,0.07407407407407408,131.5555555555556,0)" xlink:href="#bg"/><use transform="matrix(0.07407407407407408,0,0,0.07407407407407408,144.88888888888894,0)" xlink:href="#bi"/><use transform="matrix(0.07407407407407408,0,0,0.07407407407407408,151.5555555555556,0)" xlink:href="#bj"/><use transform="matrix(0.07407407407407408,0,0,0.07407407407407408,158.96296296296302,0)" xlink:href="#bk"/></g><filter id="F" filterUnits="objectBoundingBox" x="-.03" y="-.03" width="1.06" height="1.17"><feOffset result="offOut" in="SourceAlpha" dy="6"/><feGaussianBlur result="blurOut" in="offOut" stdDeviation="5"/><feColorMatrix result="colorOut" in="blurOut" values="0 0 0 0 0 0 0 0 0 0 0 0 0 0 0 0 0 0 0.16862745098039217 0"/><feBlend in="SourceGraphic" in2="colorOut"/></filter><path d="M84-182c8-17 7-45 23-55-5-6-18-7-26-14-8 75-30 129-62 184l2 3c15-18 32-45 45-75 10 45 16 67 30 95-15 28-48 60-77 94 39-28 67-55 84-80 48 59 81 68 202 70 8-12 18-21 30-25v-4c-50 8-132 10-168-5-22-8-42-25-57-46 17-27 32-69 45-127 20-8 2-15-7-29l-13 14H84zm-16 39c4-9 8-19 12-30h56c-9 56-19 93-35 120-11-20-22-50-33-90zm242 86c-7-40-40-64-76-93 6-21 11-45 12-71 0-9 20-11 2-15-7-2-15-4-24-8 10 93-25 164-76 207l3 4c45-32 67-62 82-114 34 37 40 45 61 97 5 10 19 7 16-7" id="bX"/><use transform="matrix(0.07407407407407408,0,0,0.07407407407407408,0,0)" xlink:href="#bX" id="H"/><path d="M33 0c29-24 64-27 111-57l-3-3c-22 8-42 15-59 20v-82h50c9 1 9-8 2-10-7-4-13-10-17-15-8 9-15 19-35 16v-73h53c7 0 8-10 1-11-8-5-14-9-18-15l-15 16H15l6 10h45v73H18l5 9h43v87c-17 3-36 8-49 9 5 5 8 22 16 26zm280-217c0-9 24-12 7-20-4-3-10-7-15-13l-11 13H161l-20-10c14 47-2 120 7 172 10-2 17-7 14-22h56v51h-74l6 9h68v66H100l6 10h226c10 1 12-9 3-11-9-5-15-11-20-18l-17 19h-63v-66h80c7 1 9-9 1-10-8-5-14-11-19-17l-17 18h-45v-51h62c1 6-3 17 3 18 4-2 11-3 13-7v-131zM162-107v-55h56v55h-56zm73-55h62v55h-62v-55zm-73-9v-56h56v56h-56zm73-56h62v56h-62v-56" id="bY"/><use transform="matrix(0.07407407407407408,0,0,0.07407407407407408,0,0)" xlink:href="#bY" id="I"/><path d="M21-119c64-23 126-76 159-122 29 54 68 82 115 107 9-8 22-13 37-13l2-4c-64-15-116-48-151-92 8 1 17-6 4-9-5-2-11-5-18-10-35 65-77 97-150 140zm204-49l-16 17H97l6 10h140c8 1 10-9 2-11-8-5-16-10-20-16zm-82 90c-1-8 23-13 6-20-5-3-9-7-14-13l-11 13c-27 0-59 3-73-10 9 40 2 93 4 139 10 7 20-7 16-22h55c1 5-3 17 3 17 4-2 13-2 14-6v-98zM71-1v-88h55v88H71zm223-82c1-7 19-14 7-20-5-3-9-7-14-13l-12 11c-32-1-73 6-91-10 10 48 1 111 4 166 2 7 14-2 17-4V-96h72v81c1 23-19 10-37 11v4c18 5 27 13 35 24 28-10 17-68 19-107" id="bZ"/><use transform="matrix(0.07407407407407408,0,0,0.07407407407407408,0,0)" xlink:href="#bZ" id="J"/><path d="M18-111c68-24 121-70 160-126 31 59 72 91 123 118 8-7 19-11 33-11l1-4c-66-18-119-58-155-106 4-4 20-7 6-12-6-2-11-6-18-11-44 79-72 104-151 148zm202-49l-17 18H100l6 9h132c8 0 8-8 1-11-8-5-14-10-19-16zm56 92c0-10 23-16 6-24-4-2-10-6-16-13l-10 12H60l6 10h71V53c4 5 16-2 18-7V-83h103v67c0 21-26 10-42 10v4c20 6 28 12 35 23 31-3 26-52 25-89" id="ca"/><use transform="matrix(0.07407407407407408,0,0,0.07407407407407408,0,0)" xlink:href="#ca" id="K"/><path d="M21-168c41-16 72-42 104-71-5-6-14-8-21-15-19 39-50 62-85 84zm70 38c10-11 29-35 45-48-5-6-14-8-21-15-23 50-59 84-101 115 20-5 43-25 62-39l2 172c5-2 14-2 14-8v-163c1-5 8-12-1-14zm193-117l-16 20H148l6 9h148c10 0 11-9 2-11-9-5-15-12-20-18zM236 54c11-3 25-16 25-34v-154h63c8 1 12-9 3-11-9-5-16-11-21-18l-16 19H133l6 10h105V18c-2 17-34 7-49 6v4c24 4 34 13 41 26" id="cb"/><use transform="matrix(0.07407407407407408,0,0,0.07407407407407408,0,0)" xlink:href="#cb" id="L"/><path d="M284-155c18-7 10-28-5-41-11-9-31-27-55-36 15 13 25 24 31 32-44 3-89 5-136 6 16-10 29-31 37-46 1-3 25-4 8-11-6-2-13-6-20-11-8 29-18 47-36 69l-53 1c5 6 10 32 16 19l87-9c-9 18-18 33-27 46H26l6 10h92C97-93 70-76 18-49l1 3c65-27 93-38 127-80h59c8 28 63 70 86 78 13-8 26-13 40-14v-3c-59-12-83-24-120-61h109c9-1 7-10-1-13-6-4-13-10-21-19l-19 22H154c10-9 16-29 31-36 2-1 3-3 3-5-1-4-11-5-15-8 30-4 58-7 85-11 8 7 12 35 26 41zM65-33c53-7 90-23 130-52 11 0 13-3 5-7-4-2-8-6-13-12-34 34-80 55-124 67zM53 13c78-7 136-31 201-62-3-6-12-9-18-16C185-26 115-4 52 9zM41 54c101-2 203-23 269-60-3-8-15-11-20-20-61 51-151 66-252 77" id="cc"/><use transform="matrix(0.07407407407407408,0,0,0.07407407407407408,0,0)" xlink:href="#cc" id="M"/><path d="M48-245c15 16 22 30 30 44 8 0 11-16 4-22-3-5-13-13-32-25zm85 45c21-2 32-27 50-37-4-6-14-7-20-14-7 22-17 36-30 51zm28 76c23-21-14-36-39-44v-13h69c9 1 9-8 2-10-7-4-13-10-17-15l-15 15h-39c1-20-4-48 6-59-5-5-20-4-25-8 4 12 3 47 3 67H29l5 10h63c-18 38-42 60-74 80l2 4c36-16 60-36 81-66v54l-4-2c-2 10-7 22-14 36H21l5 10h57C75-49 64-30 50-8c11 11 21-5 24-14 16 5 30 10 41 17-22 30-50 45-96 56v3c51-7 83-23 108-51 20 12 22 21 36 28 4-1 7-4 7-10-6-15-18-19-35-29 9-13 18-27 31-57 13-1 52 3 35-11-7-6-16-11-20-17l-16 18h-59c4-9 11-19 19-23-1-5-12-5-17-9 23-1 12-36 14-58 16 11 20 16 31 34 2 4 4 7 8 7zm-14 59c-10 25-18 42-25 51-11-5-27-9-45-13l23-38h47zm109 33c22-41 35-79 43-143 11 0 38 2 24-11-8-3-15-8-20-15l-16 16h-57c6-13 11-29 17-47 3-4 20-8 5-14-7-2-13-6-21-12-11 65-27 112-58 155l3 3c14-15 25-31 35-49 3 44 13 84 28 119-24 37-52 60-99 81l1 3c47-15 82-35 105-70 10 17 27 38 49 62 13-6 20-11 32-3l1-4c-35-21-54-41-72-71zm-7-14c-12-28-28-69-32-114 3-5 6-9 9-15h55c-6 58-16 92-32 129" id="cd"/><use transform="matrix(0.07407407407407408,0,0,0.07407407407407408,0,0)" xlink:href="#cd" id="N"/><use transform="matrix(0.07407407407407408,0,0,0.07407407407407408,0,0)" xlink:href="#bS" id="O"/><g id="P"><use transform="matrix(0.07407407407407408,0,0,0.07407407407407408,0,0)" xlink:href="#bT"/><use transform="matrix(0.07407407407407408,0,0,0.07407407407407408,26.66666666666667,0)" xlink:href="#bo"/><use transform="matrix(0.07407407407407408,0,0,0.07407407407407408,40.00000000000001,0)" xlink:href="#bp"/><use transform="matrix(0.07407407407407408,0,0,0.07407407407407408,53.33333333333334,0)" xlink:href="#bq"/><use transform="matrix(0.07407407407407408,0,0,0.07407407407407408,60.74074074074075,0)" xlink:href="#br"/><use transform="matrix(0.07407407407407408,0,0,0.07407407407407408,68.14814814814815,0)" xlink:href="#bs"/></g><path d="M188-171c1-7 19-14 7-20-5-3-10-7-14-13l-12 12h-26l12-38h168c8 1 10-9 2-10-7-4-13-10-17-15l-16 15H27l6 10h105l-20 56c4 6 23 1 22-8h32v159c-3 24-25 8-46 5v5c19 6 30 14 37 28 10-1 25-16 25-30v-156zm-99 12c26 22 33 40 48 58 12 0 15-19 5-27-5-6-22-18-50-34zM88-21c20-24 42-33 73-71l-2-2c-37 27-53 41-90 52 6 3 10 32 19 21zm114-80c27-12 47-33 73-47-6-5-14-10-21-18-13 24-34 48-54 61zm0 7l-3 2c27 23 45 43 55 59 7 11 11 15 15 15 14-1 14-22 2-31-7-8-30-23-69-45zM59-162c-1-9 13-14 0-17-8-1-14-3-19-5 8 71-1 166 4 241 9-3 18-6 15-21h229c1 5-2 14 2 15 5-3 13-3 15-8v-205c-2-9 11-15 0-17-8-2-14-3-19-5 5 62 0 143 2 210H59v-188" id="ce"/><use transform="matrix(0.07407407407407408,0,0,0.07407407407407408,0,0)" xlink:href="#ce" id="Q"/><use transform="matrix(0.07407407407407408,0,0,0.07407407407407408,0,0)" xlink:href="#cd" id="R"/><path d="M121 17c38-30 50-51 61-103h65c2 34-4 76 2 106 5-4 13-4 16-10v-96h58c9 0 11-9 2-11-9-5-15-12-20-18l-17 19h-23v-85h52c9 1 9-9 2-11-8-5-15-10-19-16-9 8-14 21-35 17 1-22-5-52 7-63-4-7-24-4-29-8 5 13 4 49 4 71h-56c1-23-3-53 6-63l-27-8c5 27 4 44 4 71h-50l5 10h45c0 35-2 63-6 85h-54l6 10h46c-8 43-24 77-48 100zM247-96h-63c4-24 6-52 7-85h56v85zM37-239c27 24 35 47 52 66 11-1 9-18 2-27-6-7-23-21-53-41zm60 138c0-6 18-10 6-17-6-3-12-7-17-13l-12 13H22l5 10h51V10C60 21 40 28 18 33c9 8 10 17 18 22 2-1 2-3 2-6 19-11 36-24 50-35 35 46 139 26 218 32 9-12 18-21 26-24v-4c-43 9-204 23-235-8v-111" id="cf"/><use transform="matrix(0.07407407407407408,0,0,0.07407407407407408,0,0)" xlink:href="#cf" id="S"/><use transform="matrix(0.07407407407407408,0,0,0.07407407407407408,0,0)" xlink:href="#cb" id="T"/><path d="M115-109c24-16-10-36-29-46v-22h43c9 1 10-8 2-10-8-5-15-10-19-16-8 6-9 19-26 17 2-22-5-54 6-66-3-7-20-5-25-9 4 15 3 53 3 75H21c3 15 29 7 45 9-13 71-23 78-47 144 23-32 39-58 51-99l1 186c5-3 14-2 15-8v-196c11 12 14 16 21 34 2 4 4 7 8 7zm201-71c2-4 20-10 6-17-6-3-10-8-14-14l-14 14H183c5-16 5-17 11-39 2-3 17-7 4-12-6-2-12-5-19-10-13 76-19 100-51 151l1 3c27-29 39-46 51-84h120c-1 81 0 141-12 194-7 28-32 18-64 16v3c18 4 31 15 41 28 40-21 39-33 47-91 3-24 4-72 4-142zm-99 38c1-5 20-11 2-14-7-2-14-5-21-9-3 38-13 81-31 129-11 1-22 2-31 2 6 6 8 21 17 26 22-18 59-14 100-30 2 9-2 23 8 23 16-7 15-26 4-44-6-11-16-23-29-38l-3 1c9 18 16 36 19 53l-80 7c18-30 33-65 45-106" id="cg"/><use transform="matrix(0.07407407407407408,0,0,0.07407407407407408,0,0)" xlink:href="#cg" id="U"/><use transform="matrix(0.07407407407407408,0,0,0.07407407407407408,0,0)" xlink:href="#bG" id="V"/><g id="X"><use transform="matrix(0.07407407407407408,0,0,0.07407407407407408,0,0)" xlink:href="#bo"/><use transform="matrix(0.07407407407407408,0,0,0.07407407407407408,13.333333333333336,0)" xlink:href="#bp"/><use transform="matrix(0.07407407407407408,0,0,0.07407407407407408,26.66666666666667,0)" xlink:href="#bq"/><use transform="matrix(0.07407407407407408,0,0,0.07407407407407408,34.074074074074076,0)" xlink:href="#br"/><use transform="matrix(0.07407407407407408,0,0,0.07407407407407408,41.48148148148148,0)" xlink:href="#bs"/></g><use transform="matrix(0.07407407407407408,0,0,0.07407407407407408,0,0)" xlink:href="#ce" id="Y"/><path d="M192-56c0 12-11 22-23 22-30 0-25-43 0-43 12 0 23 9 23 21zm0-156c0 12-11 21-23 21s-21-9-21-21 9-21 21-21 23 9 23 21" id="ch"/><g id="Z"><use transform="matrix(0.07407407407407408,0,0,0.07407407407407408,0,0)" xlink:href="#cd"/><use transform="matrix(0.07407407407407408,0,0,0.07407407407407408,26.66666666666667,0)" xlink:href="#ch"/></g><path d="M95-167c33-19 61-45 86-73 33 49 74 73 124 95 8-7 19-11 33-11l1-4c-64-14-118-43-155-83 5-2 17-7 4-10-5-2-11-5-18-10-45 68-74 88-151 125 24 1 52-18 74-28 7 18-2 51 6 68 6-3 16-3 13-14h123c-2 11 7 7 13 4 7-5 1-20 3-29 0-8 19-14 4-21-5-3-10-6-15-12l-11 11H111zm17 45v-27h123v27H112zm88-81l-13 14h-58l6 9h79c8 1 10-7 3-9-7-4-13-9-17-14zM162 55c19-4 24-32 21-61h141c9 1 11-9 3-12-9-5-16-11-21-17l-16 19H183v-26h97c8 0 11-7 3-11-9-4-16-12-21-18l-16 19h-63v-26c33-3 69-4 94-10-5-6-13-8-20-17-51 17-115 23-199 27l1 4c38 0 73-1 107-3v25H60l6 10h100v26H22l5 10h139c-2 17 7 37-16 35l-25-3v5c22 4 30 13 37 24" id="ci"/><use transform="matrix(0.05580259259259259,0,0,0.05580259259259259,0,0)" xlink:href="#ci" id="aa"/><path d="M194-121c15-4 10-27-1-39-8-10-21-22-39-35 4 15 18 26 21 38-46 8-84 13-114 13 23-23 43-50 59-80h79c11 1 10-8 2-10-9-5-15-11-20-18l-16 19H25l5 9h67c-9 26-23 53-43 80-7 0-15 0-25-1 7 4 8 40 21 26 2-5 10-7 28-10 25-3 57-12 98-24 4 7 6 31 18 32zM30 14c6 3 13 39 23 24 42-17 89-24 156-50l-3-3c-31 7-58 13-81 17v-65h70c9 1 11-8 3-11-9-5-16-11-21-18l-16 20h-36c-1-20 0-38 7-47-5-5-18-4-26-8 5 13 2 37 3 55H37l6 9h66V5zm217-215c-3-11 16-16 1-20-6 0-13-2-20-5 10 64-3 149 5 214 5-3 14-2 14-8v-181zm62-36c0-7 15-14 1-14-6 0-13-2-20-5 5 86 0 184 2 274-4 13-32 6-43 2v4c18 4 25 14 31 27 13-1 29-15 29-33v-255" id="cj"/><g id="ab"><use transform="matrix(0.05580259259259259,0,0,0.05580259259259259,0,0)" xlink:href="#cj"/><use transform="matrix(0.05580259259259259,0,0,0.05580259259259259,20.088933333333333,0)" xlink:href="#bo"/><use transform="matrix(0.05580259259259259,0,0,0.05580259259259259,30.133399999999998,0)" xlink:href="#bp"/><use transform="matrix(0.05580259259259259,0,0,0.05580259259259259,40.17786666666667,0)" xlink:href="#bq"/><use transform="matrix(0.05580259259259259,0,0,0.05580259259259259,45.758125925925924,0)" xlink:href="#br"/><use transform="matrix(0.05580259259259259,0,0,0.05580259259259259,51.33838518518518,0)" xlink:href="#bs"/><use transform="matrix(0.05580259259259259,0,0,0.05580259259259259,61.382851851851854,0)" xlink:href="#bk"/></g><use transform="matrix(0.05580259259259259,0,0,0.05580259259259259,0,0)" xlink:href="#bU" id="ac"/><path d="M277-88c4-21 0-61 11-77-4-7-11-10-17-19l-13 10H109l-26-17c4-5 9-10 13-17h227c7 0 7-9 1-12-9-4-17-10-23-19l-19 21H102c6-7 5-20 17-23 8-2 5-6-2-9-6-2-13-6-21-12-15 55-38 91-78 124l3 2c25-16 43-34 61-54 6 33-7 76-9 102H19l6 10h47C65-29 61-2 58 6c0 3 1 4 5 4h179c-5 21-26 22-51 16v3c16 6 23 15 29 25 25-12 35-20 42-44h64c11-11-16-15-21-28L288 0h-24c6-24 9-45 12-78h48c9 1 9-7 2-11-8-4-14-9-18-15-8 7-12 19-31 16zM245 0H77l11-78h170c-1 27-7 61-13 78zM90-88l11-77h161c0 27-1 53-3 77H90zm54-65c26 18 32 39 47 55 10-2 7-21 0-29-8-8-22-19-45-29zm-1 86c26 19 32 41 48 56 11-2 7-22 0-29-8-8-23-19-47-30" id="ck"/><use transform="matrix(0.05580259259259259,0,0,0.05580259259259259,0,0)" xlink:href="#ck" id="ad"/><use transform="matrix(0.05580259259259259,0,0,0.05580259259259259,0,0)" xlink:href="#bH" id="ae"/><path d="M33-30c29-27 65-28 114-60l-3-3c-22 8-41 15-58 20v-127h55c8 1 10-9 2-11-8-5-14-9-18-15l-15 16H19l6 10h45v132c-16 5-38 10-53 11 5 5 7 22 16 27zm270-125c0-8 28-12 10-20-5-3-10-7-15-13l-11 11h-80c11-14 20-30 27-48h90c9 1 11-8 3-11-9-5-16-11-21-18l-16 20H136l5 9h72c-2 16-6 32-11 48-22 1-42 0-54-9 14 50-2 126 7 181 4-2 12-3 14-7v-155h118v155c2 7 14-1 16-4v-139zm-68 73c0-18-2-39 5-47l-26-8c3 2 4 20 4 55 0 90-38 105-107 133l1 3c71-20 122-44 123-136zm9 69l-1 2c29 20 48 37 59 51 7 9 11 14 15 14 13-2 11-21-1-27-7-8-31-20-72-40" id="cl"/><g id="af"><use transform="matrix(0.05580259259259259,0,0,0.05580259259259259,0,0)" xlink:href="#cl"/><use transform="matrix(0.05580259259259259,0,0,0.05580259259259259,20.088933333333333,0)" xlink:href="#be"/><use transform="matrix(0.05580259259259259,0,0,0.05580259259259259,28.961545555555556,0)" xlink:href="#bl"/><use transform="matrix(0.05580259259259259,0,0,0.05580259259259259,39.00601222222222,0)" xlink:href="#bm"/><use transform="matrix(0.05580259259259259,0,0,0.05580259259259259,49.05047888888888,0)" xlink:href="#bL"/><use transform="matrix(0.05580259259259259,0,0,0.05580259259259259,55.6909874074074,0)" xlink:href="#bq"/><use transform="matrix(0.05580259259259259,0,0,0.05580259259259259,61.271246666666656,0)" xlink:href="#bg"/><use transform="matrix(0.05580259259259259,0,0,0.05580259259259259,71.31571333333332,0)" xlink:href="#bO"/></g><path d="M81-153c3-6 7-14-3-15 12-19 24-40 36-66 4-5 19-7 5-13-6-3-13-8-20-15-17 65-45 113-81 158l3 3c15-13 29-28 44-47l2 202c5-2 14-2 14-8v-199zM243 49c20-11-6-34-20-41 28-21 53-46 74-73 3-5 21-8 9-16-4-3-10-8-15-15l-14 8H160c6-13 11-27 16-41h147c10 0 10-7 2-11-9-4-15-12-20-18l-17 20H179c6-18 11-36 16-55h108c8 1 10-9 2-11-8-5-15-11-19-17l-17 18h-71c5-17 5-40 16-49-4-6-15-5-23-11-3 20-6 40-11 60h-68l6 10h60c-4 19-10 37-16 55H95l5 9h58l-22 57 12 8c4 1 8-12 12-14h122c-19 33-40 60-63 83-18-11-40-21-69-33l-3 4c36 19 64 40 82 64 4 5 8 8 14 9" id="cm"/><use transform="matrix(0.05580259259259259,0,0,0.05580259259259259,0,0)" xlink:href="#cm" id="ag"/><path d="M185-208c-2-6 25-12 10-21-5-3-10-9-14-15l-13 15h-64l6 10h64c0 17 2 32 3 47C138-52 116-25 26 50l1 3c92-55 114-81 156-185 23 88 40 122 105 182 10-8 24-11 42-11v-4C242-4 190-88 185-208" id="cn"/><path d="M10-9l31-5v-208l-31-4v-10h177v57h-11l-6-38c-28-4-63-3-95-3v92h63l6-28h11v73h-11l-6-29H75v96l105-3 10-43h12l-3 62H10v-9" id="co"/><path d="M161-154L85 37C75 66 49 86 8 75V39c18-2 6 24 29 21 30-4 38-32 47-58L21-153c-7-3-20 0-17-12h77v8l-26 4 45 116 43-116-26-4v-8h62v8" id="cp"/><g id="ah"><use transform="matrix(0.05580259259259259,0,0,0.05580259259259259,0,0)" xlink:href="#cn"/><use transform="matrix(0.05580259259259259,0,0,0.05580259259259259,20.088933333333333,0)" xlink:href="#bo"/><use transform="matrix(0.05580259259259259,0,0,0.05580259259259259,30.133399999999998,0)" xlink:href="#bp"/><use transform="matrix(0.05580259259259259,0,0,0.05580259259259259,40.17786666666667,0)" xlink:href="#bq"/><use transform="matrix(0.05580259259259259,0,0,0.05580259259259259,45.758125925925924,0)" xlink:href="#br"/><use transform="matrix(0.05580259259259259,0,0,0.05580259259259259,51.33838518518518,0)" xlink:href="#bs"/><use transform="matrix(0.05580259259259259,0,0,0.05580259259259259,61.382851851851854,0)" xlink:href="#co"/><use transform="matrix(0.05580259259259259,0,0,0.05580259259259259,73.60361962962962,0)" xlink:href="#bm"/><use transform="matrix(0.05580259259259259,0,0,0.05580259259259259,83.64808629629628,0)" xlink:href="#bv"/><use transform="matrix(0.05580259259259259,0,0,0.05580259259259259,89.22834555555555,0)" xlink:href="#bu"/><use transform="matrix(0.05580259259259259,0,0,0.05580259259259259,95.86885407407406,0)" xlink:href="#cp"/></g><filter id="W" filterUnits="objectBoundingBox" x="-.03" y="-.03" width="1.06" height="1.17"><feOffset result="offOut" in="SourceAlpha" dy="6"/><feGaussianBlur result="blurOut" in="offOut" stdDeviation="5"/><feColorMatrix result="colorOut" in="blurOut" values="0 0 0 0 0 0 0 0 0 0 0 0 0 0 0 0 0 0 0.16862745098039217 0"/><feBlend in="SourceGraphic" in2="colorOut"/></filter><g id="ai"><use transform="matrix(0.05580259259259259,0,0,0.05580259259259259,0,0)" xlink:href="#bo"/><use transform="matrix(0.05580259259259259,0,0,0.05580259259259259,10.044466666666667,0)" xlink:href="#bp"/><use transform="matrix(0.05580259259259259,0,0,0.05580259259259259,20.088933333333333,0)" xlink:href="#bq"/><use transform="matrix(0.05580259259259259,0,0,0.05580259259259259,25.669192592592594,0)" xlink:href="#br"/><use transform="matrix(0.05580259259259259,0,0,0.05580259259259259,31.249451851851852,0)" xlink:href="#bs"/><use transform="matrix(0.05580259259259259,0,0,0.05580259259259259,41.29391851851852,0)" xlink:href="#co"/><use transform="matrix(0.05580259259259259,0,0,0.05580259259259259,53.51468629629629,0)" xlink:href="#bm"/><use transform="matrix(0.05580259259259259,0,0,0.05580259259259259,63.55915296296295,0)" xlink:href="#bv"/><use transform="matrix(0.05580259259259259,0,0,0.05580259259259259,69.13941222222222,0)" xlink:href="#bu"/><use transform="matrix(0.05580259259259259,0,0,0.05580259259259259,75.77992074074074,0)" xlink:href="#cp"/></g><use transform="matrix(0.05580259259259259,0,0,0.05580259259259259,0,0)" xlink:href="#ce" id="aj"/><g id="ak"><use transform="matrix(0.05580259259259259,0,0,0.05580259259259259,0,0)" xlink:href="#cd"/><use transform="matrix(0.05580259259259259,0,0,0.05580259259259259,20.088933333333333,0)" xlink:href="#ch"/></g><use transform="matrix(0.05580259259259259,0,0,0.05580259259259259,0,0)" xlink:href="#bS" id="al"/><g id="am"><use transform="matrix(0.05580259259259259,0,0,0.05580259259259259,0,0)" xlink:href="#bT"/><use transform="matrix(0.05580259259259259,0,0,0.05580259259259259,20.088933333333333,0)" xlink:href="#bu"/><use transform="matrix(0.05580259259259259,0,0,0.05580259259259259,26.729441851851853,0)" xlink:href="#bl"/><use transform="matrix(0.05580259259259259,0,0,0.05580259259259259,36.77390851851852,0)" xlink:href="#br"/><use transform="matrix(0.05580259259259259,0,0,0.05580259259259259,42.354167777777775,0)" xlink:href="#br"/><use transform="matrix(0.05580259259259259,0,0,0.05580259259259259,47.93442703703703,0)" xlink:href="#bp"/><use transform="matrix(0.05580259259259259,0,0,0.05580259259259259,57.978893703703704,0)" xlink:href="#bc"/></g><path d="M162 22c2-26-21-81-41-109 7-23 16-56 25-98 1-7 26-8 14-18-5-4-11-11-16-19l-16 14H18c3 3 2 10 10 9 38 49 58 80 75 117C83-23 65 8 18 44l3 3C65 20 93-7 112-62c10 24 20 55 31 93 2 5 6 8 10 8 8 0 9-8 9-17zM31-199h99c-8 43-14 75-20 95-20-29-47-60-79-95zM255 51c10 9 28-13 28-31v-183c17-2 45 6 53-5-6-9-23-14-27-24-9 6-10 20-26 19 2-26-6-64 8-75-6-6-20-2-29-8 5 20 2 57 3 83H154l5 10h106V20c-4 11-31 5-41 2v4c16 4 27 13 31 25zM202-53c7 15 21 8 19-9-3-25-19-39-38-59 4 26 16 34 19 68" id="cq"/><use transform="matrix(0.05580259259259259,0,0,0.05580259259259259,0,0)" xlink:href="#cq" id="an"/><g id="ao"><use transform="matrix(0.05580259259259259,0,0,0.05580259259259259,0,0)" xlink:href="#cl"/><use transform="matrix(0.05580259259259259,0,0,0.05580259259259259,20.088933333333333,0)" xlink:href="#be"/><use transform="matrix(0.05580259259259259,0,0,0.05580259259259259,28.961545555555556,0)" xlink:href="#bl"/><use transform="matrix(0.05580259259259259,0,0,0.05580259259259259,39.00601222222222,0)" xlink:href="#bm"/><use transform="matrix(0.05580259259259259,0,0,0.05580259259259259,49.05047888888888,0)" xlink:href="#bq"/><use transform="matrix(0.05580259259259259,0,0,0.05580259259259259,54.63073814814814,0)" xlink:href="#bL"/><use transform="matrix(0.05580259259259259,0,0,0.05580259259259259,61.271246666666656,0)" xlink:href="#bg"/></g><use transform="matrix(0.05580259259259259,0,0,0.05580259259259259,0,0)" xlink:href="#cf" id="ap"/><use transform="matrix(0.05580259259259259,0,0,0.05580259259259259,0,0)" xlink:href="#cb" id="aq"/><use transform="matrix(0.05580259259259259,0,0,0.05580259259259259,0,0)" xlink:href="#bX" id="ar"/><use transform="matrix(0.05580259259259259,0,0,0.05580259259259259,0,0)" xlink:href="#bY" id="as"/><path d="M97-98c2-26-6-64 6-80-3-7-20-4-25-8 5 19 2 62 3 88H38c10-31 21-65 30-103h68c8 1 10-9 2-11-8-5-14-9-18-15l-16 16H70c4-16 4-37 16-44-3-5-13-4-20-8l-12 52H18l5 10h28c-11 44-23 79-36 112 3 9 18 10 22 0h44v56c-22 8-49 15-70 18 5 6 9 21 16 28C35-1 61-8 81-19l1 78c5-3 14-2 15-8v-79c13-8 28-16 44-26l-2-3c-15 7-29 12-42 17v-49h39c12-11-14-15-19-26-7 5-10 15-20 17zm138-144c5-2 19-8 5-11-5-2-10-5-17-10-28 68-46 91-99 132l1 2c47-21 82-63 107-108 8 29 50 77 69 86 11-8 22-12 34-12v-3c-51-16-71-32-100-76zm18 62l-15 15h-57l6 10h81c8 1 9-8 2-10-8-4-13-10-17-15zm-29 76c0-7 19-14 7-19-5-3-9-8-14-14-11 16-56 13-70 0 10 55 1 126 4 187 2 7 15-1 17-4v-62h39c-2 15 4 39-4 47-6 0-14-1-23-2v3c11 4 18 10 22 19 9-1 22-14 22-25v-130zm-56 78v-44h39v44h-39zm0-53v-39h39v39h-39zm96 85c6-36-8-90 7-117-4-5-20-4-25-7 8 32 2 88 4 128zm42-125c0-7 15-14 1-14-6 0-13-2-20-5 7 46 1 110 3 162-2 9-32 4-33 4v4c14 3 20 11 25 21 9-2 24-13 24-29v-143" id="cr"/><use transform="matrix(0.05580259259259259,0,0,0.05580259259259259,0,0)" xlink:href="#cr" id="at"/><path d="M76-134c2-25-5-61 5-77-3-7-20-4-25-8 7 26 0 80 4 111 7-3 19-3 16-16h90V17H59c2-29-6-69 6-87-5-5-20-4-25-8 7 33 0 94 4 132 13-1 17-11 15-28h228c1 9-1 20 1 27 5-3 14-3 15-9 4-37-7-88 6-114-4-6-20-4-25-8 5 21 2 66 3 95H183v-141h89c0 5-1 12 1 15 5-3 14-3 15-9 3-30-6-73 6-93-3-7-20-4-25-8 5 18 2 60 3 85h-89c2-38-6-89 6-113l-26-8c7 34 1 82 3 121H76" id="cs"/><use transform="matrix(0.05580259259259259,0,0,0.05580259259259259,0,0)" xlink:href="#cs" id="au"/><path d="M71 58c13 0 29-13 29-30V-90c15-11 33-24 53-41l-3-3c-18 12-35 23-50 31v-70h51c9 1 11-8 3-11-9-5-16-11-21-17-9 9-12 23-33 19 2-24-5-59 7-69-5-5-18-3-26-8 5 18 2 53 3 77H17l5 9h62v79C65-84 39-73 21-70c5 5 8 22 16 28 6-13 30-25 47-36V28c-5 10-30 3-40 1v4c15 4 24 12 27 25zm164-1c10-2 28-16 27-29v-231h59c12 0 11-7 2-11s-16-12-21-18l-18 20H148l6 9h92V24c0 4-1 7-4 7-16 0-29-2-40-5v5c18 4 26 13 33 26" id="ct"/><use transform="matrix(0.05580259259259259,0,0,0.05580259259259259,0,0)" xlink:href="#ct" id="av"/><path d="M101-206c8-12 10-32 24-39-5-6-18-8-26-14-11 59-37 100-74 141l1 3c24-18 53-48 70-81h179c0 48-6 117-18 143-7 14-26 5-44 3v4c18 7 26 15 33 26 30-15 32-28 39-65 4-21 7-56 9-103 2-5 15-11 3-17-4-3-9-7-14-14l-14 13H101zM201-61c9-23-8-70 12-79-3-9-14-12-18-19l-14 10H80l5 9h102v59c-37-2-87 7-110-9C87-59 69 12 90 33c4 5 47 8 128 8 77 0 89 6 109-17-10-4-14-23-12-44-10 5-3 37-19 41-9 2-43 4-104 4-70 0-95 12-95-22v-74h90c1 4-2 13 2 14" id="cu"/><use transform="matrix(0.05580259259259259,0,0,0.05580259259259259,0,0)" xlink:href="#cu" id="aw"/><use transform="matrix(0.05580259259259259,0,0,0.05580259259259259,0,0)" xlink:href="#bB" id="ax"/><use transform="matrix(0.05580259259259259,0,0,0.05580259259259259,0,0)" xlink:href="#bC" id="ay"/><g id="aA"><use transform="matrix(0.07407407407407408,0,0,0.07407407407407408,0,0)" xlink:href="#bg"/><use transform="matrix(0.07407407407407408,0,0,0.07407407407407408,13.333333333333336,0)" xlink:href="#bh"/><use transform="matrix(0.07407407407407408,0,0,0.07407407407407408,25.111111111111114,0)" xlink:href="#bv"/><use transform="matrix(0.07407407407407408,0,0,0.07407407407407408,32.51851851851852,0)" xlink:href="#bV"/><use transform="matrix(0.07407407407407408,0,0,0.07407407407407408,51.70370370370371,0)" xlink:href="#br"/><use transform="matrix(0.07407407407407408,0,0,0.07407407407407408,59.11111111111111,0)" xlink:href="#br"/><use transform="matrix(0.07407407407407408,0,0,0.07407407407407408,66.51851851851852,0)" xlink:href="#bW"/><use transform="matrix(0.07407407407407408,0,0,0.07407407407407408,84.2962962962963,0)" xlink:href="#bp"/><use transform="matrix(0.07407407407407408,0,0,0.07407407407407408,97.62962962962965,0)" xlink:href="#bq"/><use transform="matrix(0.07407407407407408,0,0,0.07407407407407408,105.03703703703705,0)" xlink:href="#br"/><use transform="matrix(0.07407407407407408,0,0,0.07407407407407408,112.44444444444446,0)" xlink:href="#bs"/><use transform="matrix(0.07407407407407408,0,0,0.07407407407407408,125.7777777777778,0)" xlink:href="#bk"/></g><path d="M101-224c-9-16 13-27-1-32-6 0-13-2-20-5l4 37H18l5 10h62l3 32c17 5 17-17 14-32h57c9 1 9-8 2-10-7-4-13-10-17-15l-15 15h-28zm155 0c-4-16 17-29 3-33-6 0-13-2-20-5 4 13 3 26 0 38h-60l5 10h54c0 10-8 26-2 32 15-2 16-17 18-32h69c9 1 9-8 2-10-7-4-13-10-17-15l-16 15h-36zm-151 92c14-8 16-25 36-27 5-10-15-10-20-21-8 16-16 29-24 38-10-12-22-23-38-36l-3 3c14 17 30 30 33 42-11 13-31 27-59 44l2 3c25-12 46-24 64-38 5 8 9 19 13 32C83-51 58-28 19-4l2 2c44-20 63-32 92-65 3 34 7 80-17 91-10 0-26-1-48-3v3c24 5 36 15 47 29 36-18 37-34 37-88 0-38-10-73-27-97zm100 24c-4 81-31 127-80 159l1 3c60-37 86-68 94-158 14 72 38 116 80 148 8-8 18-12 31-12l1-3c-61-25-88-69-107-137h87c9 1 11-9 2-11-9-5-15-11-20-18l-17 19h-56c3-15-2-40 7-49-5-5-17-4-25-8 3 15 3 37 3 57h-77l6 10h70zm34-65c19 12 23 26 34 36 10 1 14-18 4-24-6-5-17-10-35-16" id="cv"/><use transform="matrix(0.07407407407407408,0,0,0.07407407407407408,0,0)" xlink:href="#cv" id="aB"/><path d="M18-20c6 4 14 41 23 23 26-12 55-18 95-36v84c2 6 16 0 17-5v-273c14-2 41 6 45-6-6-8-21-14-25-22l-17 18H17l5 10h26v204c-11 1-21 2-30 3zm47-5v-71h71v58c-29 6-52 10-71 13zm0-80v-57h71v57H65zm0-66v-56h71v56H65zm94 225c37-16 65-34 86-61 15 24 34 42 56 53 10-11 19-16 33-11v-3c-35-13-59-29-77-54 29-44 39-76 55-151 5-2 20-7 7-13-4-4-9-9-13-17l-14 14H165c2 12 19 9 33 9 5 64 15 116 40 162-18 26-39 42-80 69zm42-234h93c-9 69-21 102-45 146-25-42-35-75-48-146" id="cw"/><g id="aC"><use transform="matrix(0.07407407407407408,0,0,0.07407407407407408,0,0)" xlink:href="#cw"/><use transform="matrix(0.07407407407407408,0,0,0.07407407407407408,26.66666666666667,0)" xlink:href="#bo"/><use transform="matrix(0.07407407407407408,0,0,0.07407407407407408,40.00000000000001,0)" xlink:href="#bp"/><use transform="matrix(0.07407407407407408,0,0,0.07407407407407408,53.33333333333334,0)" xlink:href="#bq"/><use transform="matrix(0.07407407407407408,0,0,0.07407407407407408,60.74074074074075,0)" xlink:href="#br"/><use transform="matrix(0.07407407407407408,0,0,0.07407407407407408,68.14814814814815,0)" xlink:href="#bs"/><use transform="matrix(0.07407407407407408,0,0,0.07407407407407408,81.4814814814815,0)" xlink:href="#bk"/></g><g id="aD"><use transform="matrix(0.07407407407407408,0,0,0.07407407407407408,0,0)" xlink:href="#bU"/><use transform="matrix(0.07407407407407408,0,0,0.07407407407407408,26.66666666666667,0)" xlink:href="#bf"/><use transform="matrix(0.07407407407407408,0,0,0.07407407407407408,40.00000000000001,0)" xlink:href="#bh"/><use transform="matrix(0.07407407407407408,0,0,0.07407407407407408,51.777777777777786,0)" xlink:href="#cp"/><use transform="matrix(0.07407407407407408,0,0,0.07407407407407408,65.11111111111111,0)" xlink:href="#bO"/></g><path d="M174-196c0-7 17-9 7-15-5-3-12-8-18-14l-9 13h-48c6-11 9-23 20-29-4-8-16-7-24-15-17 60-42 101-84 137l3 3c10-7 19-15 28-23 20 17 24 36 36 50 5 0 9-4 9-12 0-24-18-28-42-42 11-9 20-23 29-32 19 14 25 32 37 45 5 0 8-4 8-12 0-22-18-25-42-37 5-7 11-15 16-24h54C137-121 95-71 30-35l4 1c77-37 114-70 140-162zm48 34c-16 69-44 86-112 124l1 3c70-32 108-50 127-124 12 51 32 89 65 115 9-8 20-12 31-12v-4c-47-21-70-47-91-102h84c9 0 9-8 1-11-8-5-14-10-19-16l-17 18h-52c7-20 0-60 16-73-6-5-20-4-29-10 2 28 1 60-3 83h-56l5 9h49zm36-71c19 14 22 31 34 42 11 0 12-19 3-25-6-6-18-13-36-21zM82-26C74-3 60 14 40 29c-9 7-12 19 1 21 26-6 40-40 44-76h-3zm61 0l-4 2c3 21 3 47-2 65 2 12 11 9 18 0 16-22 1-44-12-67zm82 72c32-20-1-57-23-73l-3 1c11 21 18 42 18 62 0 6 2 9 8 10zm85 4c15-5 12-28 0-41-8-8-20-28-37-35 16 27 17 33 27 66 2 6 5 10 10 10" id="cx"/><use transform="matrix(0.07407407407407408,0,0,0.07407407407407408,0,0)" xlink:href="#cx" id="aE"/><path d="M21 54C72-2 82-33 82-148h246c9 0 7-9 1-12-9-4-17-10-23-18l-19 20H82v-57c68 0 130-7 187-18 5-2 17 7 19 0-4-11-19-15-23-26-49 22-109 34-181 38l-25-15c4 15 6 46 6 94C63-31 58-8 18 53zM295-71c1-6 21-12 5-19-4-3-9-7-14-13l-13 14H132l-20-9c11 41 2 100 5 149 2 7 14-1 16-4V24h146c1 6-3 18 3 19 4-2 11-2 13-7V-71zM133 14v-93h146v93H133" id="cy"/><use transform="matrix(0.07407407407407408,0,0,0.07407407407407408,0,0)" xlink:href="#cy" id="aF"/><use transform="matrix(0.07407407407407408,0,0,0.07407407407407408,0,0)" xlink:href="#cm" id="aG"/><path d="M52-115c0 93 80 130 150 87l7-35h11l-1 55c-23 7-52 12-83 12C60 4 19-37 15-115c-5-113 97-141 201-114l1 51h-12l-5-30c-15-9-39-16-62-16-66 0-86 41-86 109" id="cz"/><g id="aH"><use transform="matrix(0.07407407407407408,0,0,0.07407407407407408,0,0)" xlink:href="#cn"/><use transform="matrix(0.07407407407407408,0,0,0.07407407407407408,26.66666666666667,0)" xlink:href="#bg"/><use transform="matrix(0.07407407407407408,0,0,0.07407407407407408,40.00000000000001,0)" xlink:href="#bh"/><use transform="matrix(0.07407407407407408,0,0,0.07407407407407408,51.777777777777786,0)" xlink:href="#bm"/><use transform="matrix(0.07407407407407408,0,0,0.07407407407407408,65.11111111111111,0)" xlink:href="#cz"/><use transform="matrix(0.07407407407407408,0,0,0.07407407407407408,82.88888888888889,0)" xlink:href="#bl"/><use transform="matrix(0.07407407407407408,0,0,0.07407407407407408,96.22222222222223,0)" xlink:href="#bm"/><use transform="matrix(0.07407407407407408,0,0,0.07407407407407408,109.55555555555557,0)" xlink:href="#bL"/><use transform="matrix(0.07407407407407408,0,0,0.07407407407407408,118.37037037037038,0)" xlink:href="#bq"/><use transform="matrix(0.07407407407407408,0,0,0.07407407407407408,125.77777777777777,0)" xlink:href="#bg"/></g><filter id="az" filterUnits="objectBoundingBox" x="-.03" y="-.03" width="1.06" height="1.14"><feOffset result="offOut" in="SourceAlpha" dy="6"/><feGaussianBlur result="blurOut" in="offOut" stdDeviation="5"/><feColorMatrix result="colorOut" in="blurOut" values="0 0 0 0 0 0 0 0 0 0 0 0 0 0 0 0 0 0 0.16862745098039217 0"/><feBlend in="SourceGraphic" in2="colorOut"/></filter><g id="aI"><use transform="matrix(0.07407407407407408,0,0,0.07407407407407408,0,0)" xlink:href="#bg"/><use transform="matrix(0.07407407407407408,0,0,0.07407407407407408,13.333333333333336,0)" xlink:href="#bh"/><use transform="matrix(0.07407407407407408,0,0,0.07407407407407408,25.111111111111114,0)" xlink:href="#bm"/><use transform="matrix(0.07407407407407408,0,0,0.07407407407407408,38.44444444444445,0)" xlink:href="#cz"/><use transform="matrix(0.07407407407407408,0,0,0.07407407407407408,56.22222222222223,0)" xlink:href="#bl"/><use transform="matrix(0.07407407407407408,0,0,0.07407407407407408,69.55555555555557,0)" xlink:href="#bm"/><use transform="matrix(0.07407407407407408,0,0,0.07407407407407408,82.88888888888891,0)" xlink:href="#bL"/><use transform="matrix(0.07407407407407408,0,0,0.07407407407407408,91.70370370370371,0)" xlink:href="#bq"/><use transform="matrix(0.07407407407407408,0,0,0.07407407407407408,99.11111111111113,0)" xlink:href="#bg"/></g><g id="aJ"><use transform="matrix(0.07407407407407408,0,0,0.07407407407407408,0,0)" xlink:href="#cd"/><use transform="matrix(0.07407407407407408,0,0,0.07407407407407408,26.66666666666667,0)" xlink:href="#ch"/></g><path d="M126-255c28 22 35 42 53 58 12 1 13-21 4-27-5-6-24-18-54-34zm162 48l-17 19H36l5 10h125v88H62l5 9h99V21H18l5 10h303c10 0 10-8 2-12-9-4-17-11-22-17l-18 19H184V-81h98c10 0 10-7 2-11-9-4-15-11-20-17l-17 19h-63v-88h124c9 1 11-9 2-11-9-5-17-11-22-18" id="cA"/><use transform="matrix(0.07407407407407408,0,0,0.07407407407407408,0,0)" xlink:href="#cA" id="aK"/><path d="M290-160c0-9 24-14 7-23-5-3-11-7-17-13l-11 11h-53v-36h104c11 0 10-7 2-11-9-4-15-11-20-18l-16 20H26l6 9h101v36c-29 0-62 3-77-11 11 28-3 77 7 107 7-3 18-2 15-15h194c-2 13 7 10 14 6 2-1 4-2 4-3v-59zM78-114v-61h55v61H78zm72 0v-61h49v61h-49zm66 0v-61h56v61h-56zm-17-71h-49v-36h49v36zM158-68c1-10 27-20 13-26-4-1-8-4-13-7-4 9-11 20-21 33H18l5 9h106C116-42 98-23 77-1c12 12 28 1 34-10 26 5 50 10 70 16-37 33-97 41-163 45l1 4c73-1 138-9 178-44 36 12 72 31 95 40 4-1 8-4 8-10-16-24-54-25-93-39 14-14 27-34 39-60h78c10 0 10-7 2-11-9-4-16-12-21-18l-18 20H158zm68 9c-11 24-23 43-36 56-21-4-46-8-75-12 12-14 25-28 36-44h75" id="cB"/><use transform="matrix(0.07407407407407408,0,0,0.07407407407407408,0,0)" xlink:href="#cB" id="aL"/><path d="M187-168c1-28-4-64 7-79-6-4-20-4-29-9 8 22 2 59 4 88H93c8-16 15-34 21-53 3-6 24-10 7-15-6-2-13-6-21-11-20 83-35 115-78 169l1 4c26-18 49-52 66-85h80v84H56l6 10h107v94H19l6 10h295c13 0 13-10 3-12-10-6-17-13-23-20l-20 22h-93v-94h105c10 1 13-10 3-12-9-5-17-11-22-17l-17 19h-69v-84h122c8 0 8-9 1-12-10-4-18-11-24-20l-21 23h-78" id="cC"/><use transform="matrix(0.07407407407407408,0,0,0.07407407407407408,0,0)" xlink:href="#cC" id="aM"/><path d="M244-27c27-24 50-66 76-103 9 0 7-5 0-7-6-1-12-6-19-12-13 39-34 75-64 109-22-37-31-81-33-141h123c7 0 6-8 1-11-9-4-17-11-23-19l-19 20h-82c1-18-6-52 8-56-5-8-18-4-32-9 7 24 4 40 6 65H75l-22-12c3 10 5 31 5 63C57-32 53-9 18 53l3 1C60 2 71-21 74-111h69c-6 34 7 113-48 84v3c14 6 22 14 27 26 35-25 27-28 36-100 1-5 24-7 9-16-5-3-10-9-14-16-14 15-51 7-79 9v-60h112c4 67 16 112 39 155-28 29-64 54-107 77l2 3c48-21 84-43 111-69 24 31 44 62 84 68 19-2 6-15 4-25 0-4 2-20 8-46h-3c-9 20-8 22-18 39-8 14-13 0-31-12-11-11-22-22-31-36zm29-174c12-3 14-23-1-30-8-4-24-16-40-19 17 16 23 17 32 40 2 5 5 9 9 9" id="cD"/><g id="aN"><use transform="matrix(0.07407407407407408,0,0,0.07407407407407408,0,0)" xlink:href="#cD"/><use transform="matrix(0.07407407407407408,0,0,0.07407407407407408,26.66666666666667,0)" xlink:href="#bu"/><use transform="matrix(0.07407407407407408,0,0,0.07407407407407408,35.48148148148149,0)" xlink:href="#bl"/><use transform="matrix(0.07407407407407408,0,0,0.07407407407407408,48.814814814814824,0)" xlink:href="#br"/><use transform="matrix(0.07407407407407408,0,0,0.07407407407407408,56.22222222222223,0)" xlink:href="#br"/><use transform="matrix(0.07407407407407408,0,0,0.07407407407407408,63.629629629629626,0)" xlink:href="#bp"/><use transform="matrix(0.07407407407407408,0,0,0.07407407407407408,76.96296296296296,0)" xlink:href="#bc"/></g><path d="M284-165c12 8 20-17 40-15 19-11-12-20-16-30l-11 9H183v-32h117c7 0 9-10 1-11-8-5-14-9-18-15l-15 16H53l6 10h107v32H55v-17h-5c-1 32-15 42-27 59 2 6 6 10 13 10 13-6 16-23 18-43h112v84c2 7 15-1 17-6v-78h117c-6 12-12 21-16 27zm-159-15l-13 14H70l6 10h64c7 0 9-9 1-10-7-4-12-9-16-14zm1 38l-12 13H65l5 10h71c8 1 8-9 1-10-7-4-12-8-16-13zm128-38l-14 14h-41l6 10h63c7 1 10-9 2-10-7-4-12-9-16-14zm5 38l-12 13h-50l5 10h73c6 0 7-8 1-10-7-4-13-8-17-13zm33 115c1-6 18-13 8-20-5-3-10-7-14-13l-13 10H159c9-10 17-21 24-33h137c9 0 10-10 1-11-8-5-14-11-19-17l-16 18H26l6 10h132c-2 11-6 22-10 33-35-2-81 7-101-10 12 29-1 79 7 113 4-2 12-3 14-7v-87h55v87c2 7 15-1 17-6v-81h54v85c2 6 16 0 17-5v-80h59v58c1 23-21 8-40 9v5c16 5 26 12 33 23 8-3 26-16 23-30v-51" id="cE"/><use transform="matrix(0.07407407407407408,0,0,0.07407407407407408,0,0)" xlink:href="#cE" id="aO"/><g id="aP"><use transform="matrix(0.07407407407407408,0,0,0.07407407407407408,0,0)" xlink:href="#cB"/><use transform="matrix(0.07407407407407408,0,0,0.07407407407407408,26.66666666666667,0)" xlink:href="#be"/><use transform="matrix(0.07407407407407408,0,0,0.07407407407407408,38.44444444444445,0)" xlink:href="#bl"/><use transform="matrix(0.07407407407407408,0,0,0.07407407407407408,51.777777777777786,0)" xlink:href="#bm"/><use transform="matrix(0.07407407407407408,0,0,0.07407407407407408,65.11111111111111,0)" xlink:href="#bL"/><use transform="matrix(0.07407407407407408,0,0,0.07407407407407408,73.92592592592592,0)" xlink:href="#bq"/><use transform="matrix(0.07407407407407408,0,0,0.07407407407407408,81.33333333333333,0)" xlink:href="#bg"/></g><path fill="#3d4752" d="M53-14c58 12 82-15 82-73 0-52-35-77-82-58v131zM89 4C64 4 42-2 24-9v-229l-24-4v-8h53l-1 94c48-33 114-4 114 69 0 57-23 91-77 91" id="cF"/><path fill="#3d4752" d="M124-13C89 8 26 15 26-45v-108c-8-3-24 2-21-12h50v118c-3 37 42 32 69 25v-131l-25-4v-8h54v153c8 3 24-2 21 12h-48" id="cG"/><path fill="#3d4752" d="M47-200c-23 0-25-39 0-38 13 0 18 7 20 19-1 11-8 19-20 19zM65-12l28 4v8H8v-8l28-4v-141l-24-4v-8h53v153" id="cH"/><path fill="#3d4752" d="M65-12l28 4v8H7v-8l28-4v-226l-28-4v-8h58v238" id="cI"/><path fill="#3d4752" d="M13-81c0-71 46-101 114-85l-1-72-28-4v-8h57v238c8 3 24-2 21 12h-47l-2-12C80 23 13-1 13-81zm77-74c-37 1-44 33-45 74 0 38 9 66 45 66 14 0 27-3 36-7v-130c-10-1-24-3-36-3" id="cJ"/><path fill="#3d4752" d="M41-130c7 48 86 23 86 84 0 56-69 57-112 41v-40c20 0 9 29 31 31 35 19 77-26 41-50-27-18-72-13-72-59 0-50 58-52 100-41v36c-19 1-8-25-28-25-21-7-50-1-46 23" id="cK"/><g id="aR"><use transform="matrix(0.07407407407407408,0,0,0.07407407407407408,0,0)" xlink:href="#cF"/><use transform="matrix(0.07407407407407408,0,0,0.07407407407407408,13.333333333333336,0)" xlink:href="#cG"/><use transform="matrix(0.07407407407407408,0,0,0.07407407407407408,26.66666666666667,0)" xlink:href="#cH"/><use transform="matrix(0.07407407407407408,0,0,0.07407407407407408,34.074074074074076,0)" xlink:href="#cI"/><use transform="matrix(0.07407407407407408,0,0,0.07407407407407408,41.48148148148148,0)" xlink:href="#cJ"/><use transform="matrix(0.07407407407407408,0,0,0.07407407407407408,54.81481481481482,0)" xlink:href="#cK"/></g><path fill="#3d4752" d="M162 22c2-26-21-81-41-109 7-23 16-56 25-98 1-7 26-8 14-18-5-4-11-11-16-19l-16 14H18c3 3 2 10 10 9 38 49 58 80 75 117C83-23 65 8 18 44l3 3C65 20 93-7 112-62c10 24 20 55 31 93 2 5 6 8 10 8 8 0 9-8 9-17zM31-199h99c-8 43-14 75-20 95-20-29-47-60-79-95zM255 51c10 9 28-13 28-31v-183c17-2 45 6 53-5-6-9-23-14-27-24-9 6-10 20-26 19 2-26-6-64 8-75-6-6-20-2-29-8 5 20 2 57 3 83H154l5 10h106V20c-4 11-31 5-41 2v4c16 4 27 13 31 25zM202-53c7 15 21 8 19-9-3-25-19-39-38-59 4 26 16 34 19 68" id="cL"/><use transform="matrix(0.07407407407407408,0,0,0.07407407407407408,0,0)" xlink:href="#cL" id="aS"/><path fill="#3d4752" d="M177-184l63-35c-3-10-13-11-17-22-16 18-59 9-91 11 6-5 9-16 22-15 5-2 6-7-2-8-6-1-12-4-19-10-31 52-54 66-110 96l2 4c15-5 28-10 40-16 5 20-2 56 4 76 7-2 19-1 16-13h75C123-93 84-80 34-70l3 6c49-8 83-18 118-33 5 5 9 10 13 15-43 27-91 47-143 59l1 4c62-9 99-22 152-46 4 6 5 13 7 21C135-12 80 11 19 25l2 4C89 17 130 3 188-24c-2 24 5 48-14 49-11 0-24-1-41-5l-1 4c20 4 33 17 42 31 23-15 32-30 32-64 0-48-14-66-46-91 14-6 22-19 45-16 16 74 50 117 97 148 8-8 19-12 32-12l1-3c-43-14-71-36-94-68 21-7 38-18 53-31 8 0 8-6 0-8-5-2-11-6-18-10-10 23-18 31-37 46-11-17-20-37-28-62h66c-2 12 9 6 15 4 7-10 2-33 3-48 1-10 24-15 6-23-5-3-11-7-17-13l-11 12h-96zm-92 58v-48h85v48H85zm103 0v-48h89v48h-89zM78-186c15-11 29-19 45-35h84c-9 11-21 24-35 37-31-1-67 3-94-2" id="cM"/><use transform="matrix(0.07407407407407408,0,0,0.07407407407407408,0,0)" xlink:href="#cM" id="aT"/><path fill="#3d4752" d="M151-256c18 14 23 31 33 44 11 0 14-21 4-28-5-6-16-14-34-21zM33-156c16-3 16-20 19-43h240c-7 16-13 30-19 39 17 3 21-31 46-31 10-1 10-10 3-14s-13-9-19-16l-13 13H52v-16h-4c6 23-42 55-15 68zm64-11c24 14 32 29 44 44 11 0 13-20 3-27-8-5-22-13-44-21zm-19 46c26 15 34 30 48 44 12 0 13-19 3-26-9-6-24-13-48-21zM34 54C105 37 159 9 187-51c20 51 58 78 103 97 9-9 21-14 37-14l1-3C262 16 221-5 193-53h117c12 0 13-9 3-12-10-6-17-13-23-20l-19 22h-80c10-21 2-87 14-108-6-4-20-4-29-9 9 11 4 101-4 117H33l5 10h130C137 9 107 23 33 51" id="cN"/><use transform="matrix(0.07407407407407408,0,0,0.07407407407407408,0,0)" xlink:href="#cN" id="aU"/><path fill="#3d4752" d="M126-89c-2-33-12-45-35-67 16-27 26-49 34-66 3-6 27-10 10-16-4-3-9-9-15-16-14 18-69 14-90 2 11 92 1 204 4 303 2 7 15-1 17-4v-280h58c-8 29-18 54-27 77 17 22 27 36 27 67 0 26-19 33-46 21v4c14 6 24 15 29 29 21-11 35-20 34-54zm143-162l-18 19h-95l6 10h126c11 1 12-9 3-11-9-5-17-11-22-18zM209 54c10-3 23-16 23-32v-175h94c10 0 10-9 1-12-10-6-17-12-22-19l-18 21H122l6 10h88V20c-2 15-33 7-47 6v5c23 4 33 12 40 23zm-41-168c-15 52-47 89-73 124 35-25 62-56 86-99 4-3 18-7 4-12-5-2-11-7-17-13zM323-5c7 0 11-8 9-18-6-40-36-61-71-91l-2 2c31 39 37 45 53 97 2 6 6 10 11 10" id="cO"/><use transform="matrix(0.07407407407407408,0,0,0.07407407407407408,0,0)" xlink:href="#cO" id="aV"/><path fill="#3d4752" d="M264-222c0-8 22-14 3-21-4-3-10-7-16-13l-13 12H101l-21-11c11 38-2 96 6 137l16-6v-13h144c-4 17 12 12 18 6v-91zm-162 75v-39h144v39H102zm0-49v-38h144v38H102zM96-89C87-18 68 15 27 51l2 3c34-20 59-45 74-87 33 76 84 80 203 82 7-12 17-20 28-24v-4c-41 7-110 6-145 1v-55h99c8 1 8-8 2-11-9-4-16-10-22-18l-18 20h-61v-55h135c10 0 11-9 2-12-10-6-18-11-23-18l-17 20H18l5 10h149V18c-34-13-47-23-67-57 6-10 2-26 14-30 6-3 7-6-1-9-7-2-14-6-22-11" id="cP"/><use transform="matrix(0.07407407407407408,0,0,0.07407407407407408,0,0)" xlink:href="#cP" id="aW"/><path fill="#3d4752" d="M183-174c0-7 11-13-1-15 8-14 9-14 17-29h121c11 0 10-8 2-12-10-5-17-11-22-18l-18 21H25l5 9h146C135-139 89-96 18-56l1 4c62-26 109-60 144-110V50c3 9 18-1 20-6v-218zm5 22l-1 3c40 30 67 55 82 76 10 14 17 21 22 21 16-5 7-23-4-35-11-11-43-34-99-65" id="cQ"/><use transform="matrix(0.07407407407407408,0,0,0.07407407407407408,0,0)" xlink:href="#cQ" id="aX"/><path fill="#3d4752" d="M310-214c0-8 21-14 9-21-5-3-11-8-16-15l-13 11H62l-21-11c10 91 1 201 4 300 1 9 10 0 15 0 2-1 3-2 3-3v-276h229V11c1 26-23 10-46 13v4c21 6 32 14 41 26 9-3 23-18 23-34v-234zm-70 21l-16 18H91l5 9h162c9 1 10-8 2-10-8-5-16-11-20-17zm0 97c-1-8 19-13 4-20-5-3-10-7-15-13l-11 13c-37-2-87 8-109-10 7 36 1 82 3 122 2 7 15-1 17-4v-20h95c-4 14 9 15 16 7v-75zM129-38v-69h95v69h-95" id="cR"/><use transform="matrix(0.07407407407407408,0,0,0.07407407407407408,0,0)" xlink:href="#cR" id="aY"/><path fill="#3d4752" d="M77-191c19-20 23-42 41-56-7-6-18-7-26-15-2 25-9 49-19 71-19 2-32-3-43-9 10 71 1 160 4 238 3 5 15-2 17-5V7h75c-4 16 6 30 17 15v-131c18-17 37-45 51-72h112c-3 76-5 133-11 170-4 24-5 39-23 39s-32-1-40-4v4c20 4 31 14 40 26 32-7 35-29 40-68 5-37 6-88 9-154 1-7 22-13 8-19-5-3-9-7-13-14l-13 10H199c9-17 13-44 29-56-6-5-18-8-26-14-8 58-30 103-59 145 1-25-6-60 11-66-3-9-15-10-21-19-8 14-35 9-56 10zM51-2v-90h75v90H51zm0-99v-80h75v80H51zm181 45c15-4 12-25 0-36-8-6-22-24-38-29 16 23 20 27 29 57 2 5 5 8 9 8" id="cS"/><path fill="#3d4752" d="M164-154L98 4H85L17-153c-7-3-20 0-17-12h77v8l-26 4L99-38l46-115-26-4v-8h61v8" id="cT"/><path fill="#3d4752" d="M84-170c49 0 66 33 63 87H46c-8 60 38 80 95 63v10C128-2 108 4 88 4 34 4 14-29 14-84c-1-54 22-86 70-86zm33 73c12-57-57-82-69-24-1 7-2 15-2 24h71" id="cU"/><g id="aZ"><use transform="matrix(0.07407407407407408,0,0,0.07407407407407408,0,0)" xlink:href="#cS"/><use transform="matrix(0.07407407407407408,0,0,0.07407407407407408,26.66666666666667,0)" xlink:href="#cT"/><use transform="matrix(0.07407407407407408,0,0,0.07407407407407408,40.00000000000001,0)" xlink:href="#cG"/><use transform="matrix(0.07407407407407408,0,0,0.07407407407407408,53.33333333333334,0)" xlink:href="#cU"/></g><path fill="#3d4752" d="M165-158c-1-9 21-13 5-20-5-3-10-7-15-13-6 10-18 13-35 11v-52h52c9 1 9-8 2-10-7-4-14-9-18-14l-15 15H21l5 9h43v52c-19 2-32-2-43-9 10 72 1 161 4 240 9 7 21-3 17-19h101c1 6-3 17 3 18 4-2 12-3 14-7v-201zM47 22v-45h101v45H47zm57-192c5 32-14 90 18 93h26v44H47v-17c32-30 36-61 37-120h20zm44 80c-11-2-28 7-28-10v-70h28v80zm-44-90H84v-52h20v52zM47-60v-110h22c-1 51-3 80-22 110zm268-151c0-7 17-12 5-19-5-4-10-8-14-13l-14 11H188l6 10h104v96c-38-2-88 7-110-11 9 42 1 90 4 137 3 44 1 43 47 43 33 0 79 10 92-14-13-5-7-37-12-53-7 24-3 58-41 52-32-5-69 16-69-28v-116h89c1 6-3 17 3 18 4-3 12-2 14-7v-106" id="cV"/><use transform="matrix(0.07407407407407408,0,0,0.07407407407407408,0,0)" xlink:href="#cV" id="ba"/><path fill="#3d4752" d="M298-225c0-8 21-13 5-20-5-2-10-7-15-13l-11 10H63l-19-10c10 22-2 61 7 84 7-3 17-3 14-15h217c-3 12 5 12 13 7 8-8 3-29 3-43zM65-199v-40h60v40H65zm76 0v-40h64v40h-64zm80 0v-40h61v40h-61zm44 110c-1-8 25-13 8-20-5-3-10-7-15-13-17 14-58 4-87 7l12-30h120c8 0 8-9 0-11-6-4-11-10-16-17l-15 18h-85c0-10 19-18 8-23-5-1-11-4-18-7-1 8-4 17-8 30H37l6 10h123l-13 30c-26 0-53 2-67-9 11 40 2 96 5 144 4 4 18-1 16-10h142c-3 12 5 10 13 6 2-1 3-2 3-3V-89zM107 0v-28h142V0H107zm0-38v-27h142v27H107zm0-37v-30h142v30H107zm-47 0c-1-9 14-15 2-20-9-1-17-3-22-5 8 45-1 106 4 154 6-4 18-1 16-13h252c7 1 6-7 2-10-8-3-15-9-20-16l-17 17H60V-75" id="cW"/><use transform="matrix(0.07407407407407408,0,0,0.07407407407407408,0,0)" xlink:href="#cW" id="bb"/><filter id="aQ" filterUnits="objectBoundingBox" x="-.04" y="-.03" width="1.07" height="1.17"><feOffset result="offOut" in="SourceAlpha" dy="6"/><feGaussianBlur result="blurOut" in="offOut" stdDeviation="5"/><feColorMatrix result="colorOut" in="blurOut" values="0 0 0 0 0 0 0 0 0 0 0 0 0 0 0 0 0 0 0.16862745098039217 0"/><feBlend in="SourceGraphic" in2="colorOut"/></filter></defs></g></svg>